<mxfile host="app.diagrams.net" modified="2023-08-12T20:53:53.925Z" agent="Mozilla/5.0 (Windows NT 10.0; Win64; x64) AppleWebKit/537.36 (KHTML, like Gecko) Chrome/115.0.0.0 Safari/537.36" etag="8Mv430ZCCxAepxBNa-nS" version="21.6.8" type="device">
  <diagram name="Page-1" id="q1BLDdy-Y4PrY4URn0tn">
    <mxGraphModel dx="1642" dy="1880" grid="1" gridSize="10" guides="1" tooltips="1" connect="1" arrows="1" fold="1" page="1" pageScale="1" pageWidth="850" pageHeight="1100" background="#000000" math="0" shadow="0">
      <root>
        <mxCell id="0" />
        <mxCell id="1" parent="0" />
        <mxCell id="mJnlvZl1TAp7Em3mBKQQ-196" value="" style="rounded=0;whiteSpace=wrap;html=1;fillColor=#003333;strokeColor=#CCFFFF;" parent="1" vertex="1">
          <mxGeometry x="310" width="120" height="130" as="geometry" />
        </mxCell>
        <mxCell id="mJnlvZl1TAp7Em3mBKQQ-1" value="" style="rounded=0;whiteSpace=wrap;html=1;fillColor=#330000;strokeColor=#FFCCCC;" parent="1" vertex="1">
          <mxGeometry x="140" y="160" width="410" height="1120" as="geometry" />
        </mxCell>
        <mxCell id="mJnlvZl1TAp7Em3mBKQQ-200" style="edgeStyle=orthogonalEdgeStyle;rounded=0;orthogonalLoop=1;jettySize=auto;html=1;exitX=1;exitY=0.5;exitDx=0;exitDy=0;entryX=0.5;entryY=0;entryDx=0;entryDy=0;strokeColor=#FFFFFF;" parent="1" source="mJnlvZl1TAp7Em3mBKQQ-198" target="mJnlvZl1TAp7Em3mBKQQ-43" edge="1">
          <mxGeometry relative="1" as="geometry" />
        </mxCell>
        <mxCell id="mJnlvZl1TAp7Em3mBKQQ-48" value="&amp;nbsp; &amp;nbsp; &amp;nbsp; &amp;nbsp; &amp;nbsp; &amp;nbsp; &amp;nbsp; &amp;nbsp; &amp;nbsp; &amp;nbsp; &amp;nbsp; &amp;nbsp; &amp;nbsp; &amp;nbsp; &amp;nbsp; &amp;nbsp; &amp;nbsp; &amp;nbsp; &amp;nbsp; &amp;nbsp; &amp;nbsp; &amp;nbsp; &amp;nbsp; &amp;nbsp; &amp;nbsp; &amp;nbsp; &amp;nbsp;" style="rounded=0;whiteSpace=wrap;html=1;fillColor=#331A00;strokeColor=#FFE6CC;" parent="1" vertex="1">
          <mxGeometry x="580" y="160" width="760" height="1120" as="geometry" />
        </mxCell>
        <mxCell id="mJnlvZl1TAp7Em3mBKQQ-137" style="edgeStyle=orthogonalEdgeStyle;rounded=0;orthogonalLoop=1;jettySize=auto;html=1;exitX=0;exitY=1;exitDx=0;exitDy=0;entryX=0.5;entryY=1;entryDx=0;entryDy=0;strokeColor=#FFFFFF;" parent="1" source="mJnlvZl1TAp7Em3mBKQQ-119" target="mJnlvZl1TAp7Em3mBKQQ-125" edge="1">
          <mxGeometry relative="1" as="geometry">
            <Array as="points">
              <mxPoint x="820" y="850" />
              <mxPoint x="820" y="850" />
            </Array>
          </mxGeometry>
        </mxCell>
        <mxCell id="mJnlvZl1TAp7Em3mBKQQ-123" value="" style="rounded=0;whiteSpace=wrap;html=1;fillColor=#1A3300;strokeColor=#E6FFCC;" parent="1" vertex="1">
          <mxGeometry x="660" y="-90" width="910" height="230" as="geometry" />
        </mxCell>
        <mxCell id="mJnlvZl1TAp7Em3mBKQQ-2" value="Item Controller" style="text;html=1;strokeColor=none;fillColor=none;align=left;verticalAlign=middle;whiteSpace=wrap;rounded=0;fontColor=#FFFFFF;fontStyle=1;spacingLeft=5;fontSize=16;" parent="1" vertex="1">
          <mxGeometry x="140" y="160" width="130" height="30" as="geometry" />
        </mxCell>
        <mxCell id="mJnlvZl1TAp7Em3mBKQQ-5" style="edgeStyle=orthogonalEdgeStyle;rounded=0;orthogonalLoop=1;jettySize=auto;html=1;exitX=1;exitY=0.5;exitDx=0;exitDy=0;entryX=0;entryY=0.5;entryDx=0;entryDy=0;strokeColor=#FFFFFF;" parent="1" source="mJnlvZl1TAp7Em3mBKQQ-3" target="mJnlvZl1TAp7Em3mBKQQ-4" edge="1">
          <mxGeometry relative="1" as="geometry" />
        </mxCell>
        <mxCell id="mJnlvZl1TAp7Em3mBKQQ-3" value="&lt;font color=&quot;#ffffff&quot;&gt;Listen for user input.&lt;/font&gt;" style="whiteSpace=wrap;html=1;aspect=fixed;fillColor=#CC0000;strokeColor=#FFCCCC;" parent="1" vertex="1">
          <mxGeometry x="180" y="190" width="80" height="80" as="geometry" />
        </mxCell>
        <mxCell id="mJnlvZl1TAp7Em3mBKQQ-7" style="edgeStyle=orthogonalEdgeStyle;rounded=0;orthogonalLoop=1;jettySize=auto;html=1;exitX=1;exitY=0.5;exitDx=0;exitDy=0;entryX=0;entryY=0.5;entryDx=0;entryDy=0;strokeColor=#FFFFFF;" parent="1" source="mJnlvZl1TAp7Em3mBKQQ-4" target="mJnlvZl1TAp7Em3mBKQQ-6" edge="1">
          <mxGeometry relative="1" as="geometry" />
        </mxCell>
        <mxCell id="mJnlvZl1TAp7Em3mBKQQ-13" style="edgeStyle=orthogonalEdgeStyle;rounded=0;orthogonalLoop=1;jettySize=auto;html=1;exitX=1;exitY=0.5;exitDx=0;exitDy=0;entryX=0;entryY=0.5;entryDx=0;entryDy=0;strokeColor=#FFFFFF;" parent="1" source="mJnlvZl1TAp7Em3mBKQQ-4" target="mJnlvZl1TAp7Em3mBKQQ-12" edge="1">
          <mxGeometry relative="1" as="geometry">
            <Array as="points">
              <mxPoint x="370" y="230" />
              <mxPoint x="370" y="430" />
            </Array>
          </mxGeometry>
        </mxCell>
        <mxCell id="mJnlvZl1TAp7Em3mBKQQ-16" style="edgeStyle=orthogonalEdgeStyle;rounded=0;orthogonalLoop=1;jettySize=auto;html=1;exitX=1;exitY=0.5;exitDx=0;exitDy=0;entryX=0;entryY=0.5;entryDx=0;entryDy=0;strokeColor=#FFFFFF;" parent="1" source="mJnlvZl1TAp7Em3mBKQQ-4" target="mJnlvZl1TAp7Em3mBKQQ-15" edge="1">
          <mxGeometry relative="1" as="geometry">
            <Array as="points">
              <mxPoint x="370" y="230" />
              <mxPoint x="370" y="530" />
            </Array>
          </mxGeometry>
        </mxCell>
        <mxCell id="mJnlvZl1TAp7Em3mBKQQ-19" style="edgeStyle=orthogonalEdgeStyle;rounded=0;orthogonalLoop=1;jettySize=auto;html=1;exitX=1;exitY=0.5;exitDx=0;exitDy=0;entryX=0;entryY=0.5;entryDx=0;entryDy=0;strokeColor=#FFFFFF;" parent="1" source="mJnlvZl1TAp7Em3mBKQQ-4" target="mJnlvZl1TAp7Em3mBKQQ-18" edge="1">
          <mxGeometry relative="1" as="geometry">
            <Array as="points">
              <mxPoint x="370" y="230" />
              <mxPoint x="370" y="630" />
            </Array>
          </mxGeometry>
        </mxCell>
        <mxCell id="mJnlvZl1TAp7Em3mBKQQ-22" style="edgeStyle=orthogonalEdgeStyle;rounded=0;orthogonalLoop=1;jettySize=auto;html=1;exitX=1;exitY=0.5;exitDx=0;exitDy=0;entryX=0;entryY=0.5;entryDx=0;entryDy=0;strokeColor=#FFFFFF;" parent="1" source="mJnlvZl1TAp7Em3mBKQQ-4" target="mJnlvZl1TAp7Em3mBKQQ-21" edge="1">
          <mxGeometry relative="1" as="geometry">
            <Array as="points">
              <mxPoint x="370" y="230" />
              <mxPoint x="370" y="730" />
            </Array>
          </mxGeometry>
        </mxCell>
        <mxCell id="mJnlvZl1TAp7Em3mBKQQ-25" style="edgeStyle=orthogonalEdgeStyle;rounded=0;orthogonalLoop=1;jettySize=auto;html=1;exitX=1;exitY=0.5;exitDx=0;exitDy=0;entryX=0;entryY=0.5;entryDx=0;entryDy=0;strokeColor=#FFFFFF;" parent="1" source="mJnlvZl1TAp7Em3mBKQQ-4" target="mJnlvZl1TAp7Em3mBKQQ-24" edge="1">
          <mxGeometry relative="1" as="geometry">
            <Array as="points">
              <mxPoint x="370" y="230" />
              <mxPoint x="370" y="830" />
            </Array>
          </mxGeometry>
        </mxCell>
        <mxCell id="mJnlvZl1TAp7Em3mBKQQ-28" style="edgeStyle=orthogonalEdgeStyle;rounded=0;orthogonalLoop=1;jettySize=auto;html=1;exitX=1;exitY=0.5;exitDx=0;exitDy=0;entryX=0;entryY=0.5;entryDx=0;entryDy=0;strokeColor=#FFFFFF;" parent="1" source="mJnlvZl1TAp7Em3mBKQQ-4" target="mJnlvZl1TAp7Em3mBKQQ-27" edge="1">
          <mxGeometry relative="1" as="geometry">
            <Array as="points">
              <mxPoint x="370" y="230" />
              <mxPoint x="370" y="930" />
            </Array>
          </mxGeometry>
        </mxCell>
        <mxCell id="mJnlvZl1TAp7Em3mBKQQ-31" style="edgeStyle=orthogonalEdgeStyle;rounded=0;orthogonalLoop=1;jettySize=auto;html=1;exitX=1;exitY=0.5;exitDx=0;exitDy=0;entryX=0;entryY=0.5;entryDx=0;entryDy=0;strokeColor=#FFFFFF;" parent="1" source="mJnlvZl1TAp7Em3mBKQQ-4" target="mJnlvZl1TAp7Em3mBKQQ-30" edge="1">
          <mxGeometry relative="1" as="geometry">
            <Array as="points">
              <mxPoint x="370" y="230" />
              <mxPoint x="370" y="1030" />
            </Array>
          </mxGeometry>
        </mxCell>
        <mxCell id="mJnlvZl1TAp7Em3mBKQQ-34" style="edgeStyle=orthogonalEdgeStyle;rounded=0;orthogonalLoop=1;jettySize=auto;html=1;exitX=1;exitY=0.5;exitDx=0;exitDy=0;entryX=0;entryY=0.5;entryDx=0;entryDy=0;strokeColor=#FFFFFF;" parent="1" source="mJnlvZl1TAp7Em3mBKQQ-4" target="mJnlvZl1TAp7Em3mBKQQ-33" edge="1">
          <mxGeometry relative="1" as="geometry">
            <Array as="points">
              <mxPoint x="370" y="230" />
              <mxPoint x="370" y="1130" />
            </Array>
          </mxGeometry>
        </mxCell>
        <mxCell id="mJnlvZl1TAp7Em3mBKQQ-38" style="edgeStyle=orthogonalEdgeStyle;rounded=0;orthogonalLoop=1;jettySize=auto;html=1;exitX=1;exitY=0.5;exitDx=0;exitDy=0;entryX=1;entryY=0.5;entryDx=0;entryDy=0;strokeColor=#FFFFFF;" parent="1" source="mJnlvZl1TAp7Em3mBKQQ-4" target="mJnlvZl1TAp7Em3mBKQQ-37" edge="1">
          <mxGeometry relative="1" as="geometry">
            <Array as="points">
              <mxPoint x="370" y="230" />
              <mxPoint x="370" y="1130" />
            </Array>
          </mxGeometry>
        </mxCell>
        <mxCell id="mJnlvZl1TAp7Em3mBKQQ-4" value="&lt;font color=&quot;#ffffff&quot;&gt;Command?&lt;/font&gt;" style="rhombus;whiteSpace=wrap;html=1;fillColor=#CC0000;strokeColor=#FFCCCC;" parent="1" vertex="1">
          <mxGeometry x="280" y="190" width="80" height="80" as="geometry" />
        </mxCell>
        <mxCell id="mJnlvZl1TAp7Em3mBKQQ-136" style="edgeStyle=orthogonalEdgeStyle;rounded=0;orthogonalLoop=1;jettySize=auto;html=1;exitX=0.5;exitY=1;exitDx=0;exitDy=0;entryX=0.5;entryY=0;entryDx=0;entryDy=0;strokeColor=#FFFFFF;" parent="1" source="mJnlvZl1TAp7Em3mBKQQ-6" target="mJnlvZl1TAp7Em3mBKQQ-43" edge="1">
          <mxGeometry relative="1" as="geometry" />
        </mxCell>
        <mxCell id="mJnlvZl1TAp7Em3mBKQQ-6" value="&lt;font color=&quot;#ffffff&quot;&gt;Call ItemService.&lt;/font&gt;" style="whiteSpace=wrap;html=1;aspect=fixed;fillColor=#CC0000;strokeColor=#FFCCCC;" parent="1" vertex="1">
          <mxGeometry x="450" y="190" width="80" height="80" as="geometry" />
        </mxCell>
        <mxCell id="mJnlvZl1TAp7Em3mBKQQ-10" style="edgeStyle=orthogonalEdgeStyle;rounded=0;orthogonalLoop=1;jettySize=auto;html=1;exitX=0;exitY=1;exitDx=0;exitDy=0;entryX=0;entryY=0.5;entryDx=0;entryDy=0;fontColor=#FFFFFF;strokeColor=#FFFFFF;" parent="1" source="mJnlvZl1TAp7Em3mBKQQ-8" target="mJnlvZl1TAp7Em3mBKQQ-9" edge="1">
          <mxGeometry relative="1" as="geometry">
            <Array as="points">
              <mxPoint x="370" y="230" />
              <mxPoint x="370" y="330" />
            </Array>
          </mxGeometry>
        </mxCell>
        <mxCell id="mJnlvZl1TAp7Em3mBKQQ-8" value="ADD" style="text;html=1;strokeColor=none;fillColor=none;align=center;verticalAlign=middle;whiteSpace=wrap;rounded=0;fontColor=#FFFFFF;fontStyle=0;spacingLeft=0;fontSize=12;" parent="1" vertex="1">
          <mxGeometry x="370" y="200" width="80" height="30" as="geometry" />
        </mxCell>
        <mxCell id="mJnlvZl1TAp7Em3mBKQQ-54" style="edgeStyle=orthogonalEdgeStyle;rounded=0;orthogonalLoop=1;jettySize=auto;html=1;exitX=1;exitY=0.5;exitDx=0;exitDy=0;entryX=0;entryY=0.5;entryDx=0;entryDy=0;strokeColor=#FFFFFF;" parent="1" source="mJnlvZl1TAp7Em3mBKQQ-9" target="mJnlvZl1TAp7Em3mBKQQ-53" edge="1">
          <mxGeometry relative="1" as="geometry" />
        </mxCell>
        <mxCell id="mJnlvZl1TAp7Em3mBKQQ-9" value="&lt;font color=&quot;#ffffff&quot;&gt;Call ItemService.&lt;/font&gt;" style="whiteSpace=wrap;html=1;aspect=fixed;fillColor=#CC0000;strokeColor=#FFCCCC;" parent="1" vertex="1">
          <mxGeometry x="450" y="290" width="80" height="80" as="geometry" />
        </mxCell>
        <mxCell id="mJnlvZl1TAp7Em3mBKQQ-11" value="REMOVE" style="text;html=1;strokeColor=none;fillColor=none;align=center;verticalAlign=middle;whiteSpace=wrap;rounded=0;fontColor=#FFFFFF;fontStyle=0;spacingLeft=0;fontSize=12;" parent="1" vertex="1">
          <mxGeometry x="370" y="300" width="80" height="30" as="geometry" />
        </mxCell>
        <mxCell id="mJnlvZl1TAp7Em3mBKQQ-82" style="edgeStyle=orthogonalEdgeStyle;rounded=0;orthogonalLoop=1;jettySize=auto;html=1;exitX=1;exitY=0.5;exitDx=0;exitDy=0;entryX=0;entryY=0.5;entryDx=0;entryDy=0;strokeColor=#FFFFFF;" parent="1" source="mJnlvZl1TAp7Em3mBKQQ-12" target="mJnlvZl1TAp7Em3mBKQQ-81" edge="1">
          <mxGeometry relative="1" as="geometry" />
        </mxCell>
        <mxCell id="mJnlvZl1TAp7Em3mBKQQ-12" value="&lt;font color=&quot;#ffffff&quot;&gt;Call ItemService.&lt;/font&gt;" style="whiteSpace=wrap;html=1;aspect=fixed;fillColor=#CC0000;strokeColor=#FFCCCC;" parent="1" vertex="1">
          <mxGeometry x="450" y="390" width="80" height="80" as="geometry" />
        </mxCell>
        <mxCell id="mJnlvZl1TAp7Em3mBKQQ-14" value="KEYS" style="text;html=1;strokeColor=none;fillColor=none;align=center;verticalAlign=middle;whiteSpace=wrap;rounded=0;fontColor=#FFFFFF;fontStyle=0;spacingLeft=0;fontSize=12;" parent="1" vertex="1">
          <mxGeometry x="370" y="400" width="80" height="30" as="geometry" />
        </mxCell>
        <mxCell id="mJnlvZl1TAp7Em3mBKQQ-57" style="edgeStyle=orthogonalEdgeStyle;rounded=0;orthogonalLoop=1;jettySize=auto;html=1;exitX=1;exitY=0.5;exitDx=0;exitDy=0;entryX=0;entryY=0.5;entryDx=0;entryDy=0;strokeColor=#FFFFFF;" parent="1" source="mJnlvZl1TAp7Em3mBKQQ-15" target="mJnlvZl1TAp7Em3mBKQQ-55" edge="1">
          <mxGeometry relative="1" as="geometry" />
        </mxCell>
        <mxCell id="mJnlvZl1TAp7Em3mBKQQ-15" value="&lt;font color=&quot;#ffffff&quot;&gt;Call ItemService.&lt;/font&gt;" style="whiteSpace=wrap;html=1;aspect=fixed;fillColor=#CC0000;strokeColor=#FFCCCC;" parent="1" vertex="1">
          <mxGeometry x="450" y="490" width="80" height="80" as="geometry" />
        </mxCell>
        <mxCell id="mJnlvZl1TAp7Em3mBKQQ-17" value="MEMBERS" style="text;html=1;strokeColor=none;fillColor=none;align=center;verticalAlign=middle;whiteSpace=wrap;rounded=0;fontColor=#FFFFFF;fontStyle=0;spacingLeft=0;fontSize=12;" parent="1" vertex="1">
          <mxGeometry x="370" y="500" width="80" height="30" as="geometry" />
        </mxCell>
        <mxCell id="mJnlvZl1TAp7Em3mBKQQ-59" style="edgeStyle=orthogonalEdgeStyle;rounded=0;orthogonalLoop=1;jettySize=auto;html=1;exitX=1;exitY=0.5;exitDx=0;exitDy=0;entryX=0;entryY=0.5;entryDx=0;entryDy=0;strokeColor=#FFFFFF;" parent="1" source="mJnlvZl1TAp7Em3mBKQQ-18" target="mJnlvZl1TAp7Em3mBKQQ-58" edge="1">
          <mxGeometry relative="1" as="geometry" />
        </mxCell>
        <mxCell id="mJnlvZl1TAp7Em3mBKQQ-18" value="&lt;font color=&quot;#ffffff&quot;&gt;Call ItemService.&lt;/font&gt;" style="whiteSpace=wrap;html=1;aspect=fixed;fillColor=#CC0000;strokeColor=#FFCCCC;" parent="1" vertex="1">
          <mxGeometry x="450" y="590" width="80" height="80" as="geometry" />
        </mxCell>
        <mxCell id="mJnlvZl1TAp7Em3mBKQQ-20" value="REMOVEALL" style="text;html=1;strokeColor=none;fillColor=none;align=center;verticalAlign=middle;whiteSpace=wrap;rounded=0;fontColor=#FFFFFF;fontStyle=0;spacingLeft=0;fontSize=12;" parent="1" vertex="1">
          <mxGeometry x="370" y="600" width="80" height="30" as="geometry" />
        </mxCell>
        <mxCell id="mJnlvZl1TAp7Em3mBKQQ-88" style="edgeStyle=orthogonalEdgeStyle;rounded=0;orthogonalLoop=1;jettySize=auto;html=1;exitX=1;exitY=0.5;exitDx=0;exitDy=0;strokeColor=#FFFFFF;" parent="1" source="mJnlvZl1TAp7Em3mBKQQ-21" target="mJnlvZl1TAp7Em3mBKQQ-87" edge="1">
          <mxGeometry relative="1" as="geometry" />
        </mxCell>
        <mxCell id="mJnlvZl1TAp7Em3mBKQQ-21" value="&lt;font color=&quot;#ffffff&quot;&gt;Call ItemService.&lt;/font&gt;" style="whiteSpace=wrap;html=1;aspect=fixed;fillColor=#CC0000;strokeColor=#FFCCCC;" parent="1" vertex="1">
          <mxGeometry x="450" y="690" width="80" height="80" as="geometry" />
        </mxCell>
        <mxCell id="mJnlvZl1TAp7Em3mBKQQ-23" value="CLEAR" style="text;html=1;strokeColor=none;fillColor=none;align=center;verticalAlign=middle;whiteSpace=wrap;rounded=0;fontColor=#FFFFFF;fontStyle=0;spacingLeft=0;fontSize=12;" parent="1" vertex="1">
          <mxGeometry x="370" y="700" width="80" height="30" as="geometry" />
        </mxCell>
        <mxCell id="mJnlvZl1TAp7Em3mBKQQ-62" style="edgeStyle=orthogonalEdgeStyle;rounded=0;orthogonalLoop=1;jettySize=auto;html=1;exitX=1;exitY=0.5;exitDx=0;exitDy=0;entryX=0;entryY=0.5;entryDx=0;entryDy=0;strokeColor=#FFFFFF;" parent="1" source="mJnlvZl1TAp7Em3mBKQQ-24" target="mJnlvZl1TAp7Em3mBKQQ-60" edge="1">
          <mxGeometry relative="1" as="geometry" />
        </mxCell>
        <mxCell id="mJnlvZl1TAp7Em3mBKQQ-24" value="&lt;font color=&quot;#ffffff&quot;&gt;Call ItemService.&lt;/font&gt;" style="whiteSpace=wrap;html=1;aspect=fixed;fillColor=#CC0000;strokeColor=#FFCCCC;" parent="1" vertex="1">
          <mxGeometry x="450" y="790" width="80" height="80" as="geometry" />
        </mxCell>
        <mxCell id="mJnlvZl1TAp7Em3mBKQQ-26" value="KEYEXISTS" style="text;html=1;strokeColor=none;fillColor=none;align=center;verticalAlign=middle;whiteSpace=wrap;rounded=0;fontColor=#FFFFFF;fontStyle=0;spacingLeft=0;fontSize=12;" parent="1" vertex="1">
          <mxGeometry x="370" y="800" width="80" height="30" as="geometry" />
        </mxCell>
        <mxCell id="mJnlvZl1TAp7Em3mBKQQ-65" style="edgeStyle=orthogonalEdgeStyle;rounded=0;orthogonalLoop=1;jettySize=auto;html=1;exitX=1;exitY=0.5;exitDx=0;exitDy=0;entryX=0;entryY=0.5;entryDx=0;entryDy=0;strokeColor=#FFFFFF;" parent="1" source="mJnlvZl1TAp7Em3mBKQQ-27" target="mJnlvZl1TAp7Em3mBKQQ-64" edge="1">
          <mxGeometry relative="1" as="geometry" />
        </mxCell>
        <mxCell id="mJnlvZl1TAp7Em3mBKQQ-27" value="&lt;font color=&quot;#ffffff&quot;&gt;Call ItemService.&lt;/font&gt;" style="whiteSpace=wrap;html=1;aspect=fixed;fillColor=#CC0000;strokeColor=#FFCCCC;" parent="1" vertex="1">
          <mxGeometry x="450" y="890" width="80" height="80" as="geometry" />
        </mxCell>
        <mxCell id="mJnlvZl1TAp7Em3mBKQQ-29" value="&lt;font style=&quot;font-size: 9px;&quot;&gt;MEMBEREXISTS&lt;/font&gt;" style="text;html=1;strokeColor=none;fillColor=none;align=center;verticalAlign=middle;whiteSpace=wrap;rounded=0;fontColor=#FFFFFF;fontStyle=0;spacingLeft=0;fontSize=12;" parent="1" vertex="1">
          <mxGeometry x="370" y="900" width="80" height="30" as="geometry" />
        </mxCell>
        <mxCell id="mJnlvZl1TAp7Em3mBKQQ-94" style="edgeStyle=orthogonalEdgeStyle;rounded=0;orthogonalLoop=1;jettySize=auto;html=1;exitX=1;exitY=0.5;exitDx=0;exitDy=0;entryX=0;entryY=0.5;entryDx=0;entryDy=0;strokeColor=#FFFFFF;" parent="1" source="mJnlvZl1TAp7Em3mBKQQ-30" target="mJnlvZl1TAp7Em3mBKQQ-93" edge="1">
          <mxGeometry relative="1" as="geometry" />
        </mxCell>
        <mxCell id="mJnlvZl1TAp7Em3mBKQQ-30" value="&lt;font color=&quot;#ffffff&quot;&gt;Call ItemService.&lt;/font&gt;" style="whiteSpace=wrap;html=1;aspect=fixed;fillColor=#CC0000;strokeColor=#FFCCCC;" parent="1" vertex="1">
          <mxGeometry x="450" y="990" width="80" height="80" as="geometry" />
        </mxCell>
        <mxCell id="mJnlvZl1TAp7Em3mBKQQ-32" value="&lt;font style=&quot;font-size: 10px;&quot;&gt;ALLMEMBERS&lt;/font&gt;" style="text;html=1;strokeColor=none;fillColor=none;align=center;verticalAlign=middle;whiteSpace=wrap;rounded=0;fontColor=#FFFFFF;fontStyle=0;spacingLeft=0;fontSize=12;" parent="1" vertex="1">
          <mxGeometry x="370" y="1000" width="80" height="30" as="geometry" />
        </mxCell>
        <mxCell id="mJnlvZl1TAp7Em3mBKQQ-96" style="edgeStyle=orthogonalEdgeStyle;rounded=0;orthogonalLoop=1;jettySize=auto;html=1;exitX=1;exitY=0.5;exitDx=0;exitDy=0;entryX=0;entryY=0.5;entryDx=0;entryDy=0;strokeColor=#FFFFFF;" parent="1" source="mJnlvZl1TAp7Em3mBKQQ-33" target="mJnlvZl1TAp7Em3mBKQQ-95" edge="1">
          <mxGeometry relative="1" as="geometry" />
        </mxCell>
        <mxCell id="mJnlvZl1TAp7Em3mBKQQ-33" value="&lt;font color=&quot;#ffffff&quot;&gt;Call ItemService.&lt;/font&gt;" style="whiteSpace=wrap;html=1;aspect=fixed;fillColor=#CC0000;strokeColor=#FFCCCC;" parent="1" vertex="1">
          <mxGeometry x="450" y="1090" width="80" height="80" as="geometry" />
        </mxCell>
        <mxCell id="mJnlvZl1TAp7Em3mBKQQ-35" value="ITEMS" style="text;html=1;strokeColor=none;fillColor=none;align=center;verticalAlign=middle;whiteSpace=wrap;rounded=0;fontColor=#FFFFFF;fontStyle=0;spacingLeft=0;fontSize=12;" parent="1" vertex="1">
          <mxGeometry x="370" y="1100" width="80" height="30" as="geometry" />
        </mxCell>
        <mxCell id="mJnlvZl1TAp7Em3mBKQQ-41" style="edgeStyle=orthogonalEdgeStyle;rounded=0;orthogonalLoop=1;jettySize=auto;html=1;exitX=0.5;exitY=0;exitDx=0;exitDy=0;entryX=0.5;entryY=1;entryDx=0;entryDy=0;strokeColor=#FFFFFF;" parent="1" source="mJnlvZl1TAp7Em3mBKQQ-37" target="mJnlvZl1TAp7Em3mBKQQ-40" edge="1">
          <mxGeometry relative="1" as="geometry" />
        </mxCell>
        <mxCell id="mJnlvZl1TAp7Em3mBKQQ-37" value="&lt;font color=&quot;#ffffff&quot;&gt;Throw Invalid Command Exception&lt;/font&gt;" style="whiteSpace=wrap;html=1;aspect=fixed;fillColor=#CC0000;strokeColor=#FFCCCC;" parent="1" vertex="1">
          <mxGeometry x="200" y="1090" width="80" height="80" as="geometry" />
        </mxCell>
        <mxCell id="mJnlvZl1TAp7Em3mBKQQ-39" value="Unknown" style="text;html=1;strokeColor=none;fillColor=none;align=center;verticalAlign=middle;whiteSpace=wrap;rounded=0;fontColor=#FFFFFF;fontStyle=0;spacingLeft=0;fontSize=12;" parent="1" vertex="1">
          <mxGeometry x="290" y="1100" width="80" height="30" as="geometry" />
        </mxCell>
        <mxCell id="mJnlvZl1TAp7Em3mBKQQ-42" style="edgeStyle=orthogonalEdgeStyle;rounded=0;orthogonalLoop=1;jettySize=auto;html=1;exitX=0.5;exitY=0;exitDx=0;exitDy=0;entryX=0;entryY=0.5;entryDx=0;entryDy=0;strokeColor=#FFFFFF;" parent="1" source="mJnlvZl1TAp7Em3mBKQQ-40" target="mJnlvZl1TAp7Em3mBKQQ-3" edge="1">
          <mxGeometry relative="1" as="geometry">
            <Array as="points">
              <mxPoint x="240" y="960" />
              <mxPoint x="160" y="960" />
              <mxPoint x="160" y="230" />
            </Array>
          </mxGeometry>
        </mxCell>
        <mxCell id="mJnlvZl1TAp7Em3mBKQQ-40" value="&lt;font color=&quot;#ffffff&quot;&gt;CATCH&lt;/font&gt;" style="whiteSpace=wrap;html=1;aspect=fixed;fillColor=#666600;strokeColor=#FFFFCC;" parent="1" vertex="1">
          <mxGeometry x="200" y="975" width="80" height="80" as="geometry" />
        </mxCell>
        <mxCell id="mJnlvZl1TAp7Em3mBKQQ-45" style="edgeStyle=orthogonalEdgeStyle;rounded=0;orthogonalLoop=1;jettySize=auto;html=1;exitX=0;exitY=0.5;exitDx=0;exitDy=0;entryX=0;entryY=0.5;entryDx=0;entryDy=0;strokeColor=#FFFFFF;" parent="1" source="mJnlvZl1TAp7Em3mBKQQ-43" target="mJnlvZl1TAp7Em3mBKQQ-44" edge="1">
          <mxGeometry relative="1" as="geometry" />
        </mxCell>
        <mxCell id="mJnlvZl1TAp7Em3mBKQQ-43" value="&lt;font color=&quot;#ffffff&quot;&gt;Display output.&lt;/font&gt;" style="whiteSpace=wrap;html=1;aspect=fixed;fillColor=#CC0000;strokeColor=#FFCCCC;" parent="1" vertex="1">
          <mxGeometry x="450" y="1190" width="80" height="80" as="geometry" />
        </mxCell>
        <mxCell id="mJnlvZl1TAp7Em3mBKQQ-44" value="" style="triangle;whiteSpace=wrap;html=1;fillColor=#CC0000;strokeColor=#FFCCCC;rotation=-180;" parent="1" vertex="1">
          <mxGeometry x="365" y="1190" width="60" height="80" as="geometry" />
        </mxCell>
        <mxCell id="mJnlvZl1TAp7Em3mBKQQ-46" value="START" style="text;html=1;strokeColor=none;fillColor=none;align=center;verticalAlign=middle;whiteSpace=wrap;rounded=0;fontColor=#FFFFFF;fontStyle=0;spacingLeft=0;fontSize=12;" parent="1" vertex="1">
          <mxGeometry x="360" y="1215" width="80" height="30" as="geometry" />
        </mxCell>
        <mxCell id="mJnlvZl1TAp7Em3mBKQQ-47" value="START" style="text;html=1;strokeColor=none;fillColor=none;align=center;verticalAlign=middle;whiteSpace=wrap;rounded=0;fontColor=#FFFFFF;fontStyle=0;spacingLeft=0;fontSize=12;" parent="1" vertex="1">
          <mxGeometry x="180" y="270" width="80" height="30" as="geometry" />
        </mxCell>
        <mxCell id="mJnlvZl1TAp7Em3mBKQQ-49" value="Item Service" style="text;html=1;strokeColor=none;fillColor=none;align=left;verticalAlign=middle;whiteSpace=wrap;rounded=0;fontColor=#FFFFFF;fontStyle=1;spacingLeft=5;fontSize=16;" parent="1" vertex="1">
          <mxGeometry x="580" y="160" width="130" height="30" as="geometry" />
        </mxCell>
        <mxCell id="mJnlvZl1TAp7Em3mBKQQ-122" style="edgeStyle=orthogonalEdgeStyle;rounded=0;orthogonalLoop=1;jettySize=auto;html=1;exitX=1;exitY=0.5;exitDx=0;exitDy=0;entryX=0;entryY=0.5;entryDx=0;entryDy=0;strokeColor=#FFFFFF;" parent="1" source="mJnlvZl1TAp7Em3mBKQQ-50" target="mJnlvZl1TAp7Em3mBKQQ-120" edge="1">
          <mxGeometry relative="1" as="geometry" />
        </mxCell>
        <mxCell id="mJnlvZl1TAp7Em3mBKQQ-126" style="edgeStyle=orthogonalEdgeStyle;rounded=0;orthogonalLoop=1;jettySize=auto;html=1;exitX=0.5;exitY=0;exitDx=0;exitDy=0;entryX=0.5;entryY=1;entryDx=0;entryDy=0;strokeColor=#FFFFFF;" parent="1" source="mJnlvZl1TAp7Em3mBKQQ-50" target="mJnlvZl1TAp7Em3mBKQQ-125" edge="1">
          <mxGeometry relative="1" as="geometry" />
        </mxCell>
        <mxCell id="mJnlvZl1TAp7Em3mBKQQ-50" value="&lt;font color=&quot;#ffffff&quot;&gt;Create Key if none exists.&lt;/font&gt;" style="whiteSpace=wrap;html=1;aspect=fixed;fillColor=#994C00;strokeColor=#FFE6CC;" parent="1" vertex="1">
          <mxGeometry x="780" y="190" width="80" height="80" as="geometry" />
        </mxCell>
        <mxCell id="mJnlvZl1TAp7Em3mBKQQ-68" style="edgeStyle=orthogonalEdgeStyle;rounded=0;orthogonalLoop=1;jettySize=auto;html=1;exitX=0.5;exitY=1;exitDx=0;exitDy=0;entryX=0;entryY=0.5;entryDx=0;entryDy=0;strokeColor=#FFFFFF;" parent="1" source="mJnlvZl1TAp7Em3mBKQQ-51" target="mJnlvZl1TAp7Em3mBKQQ-67" edge="1">
          <mxGeometry relative="1" as="geometry">
            <Array as="points">
              <mxPoint x="640" y="280" />
            </Array>
          </mxGeometry>
        </mxCell>
        <mxCell id="mJnlvZl1TAp7Em3mBKQQ-121" style="edgeStyle=orthogonalEdgeStyle;rounded=0;orthogonalLoop=1;jettySize=auto;html=1;exitX=1;exitY=0.5;exitDx=0;exitDy=0;entryX=0;entryY=0.5;entryDx=0;entryDy=0;strokeColor=#FFFFFF;" parent="1" source="mJnlvZl1TAp7Em3mBKQQ-51" target="mJnlvZl1TAp7Em3mBKQQ-50" edge="1">
          <mxGeometry relative="1" as="geometry" />
        </mxCell>
        <mxCell id="mJnlvZl1TAp7Em3mBKQQ-51" value="&lt;font color=&quot;#ffffff&quot;&gt;Valid Args?&lt;/font&gt;" style="rhombus;whiteSpace=wrap;html=1;fillColor=#994C00;strokeColor=#FFCCCC;" parent="1" vertex="1">
          <mxGeometry x="600" y="190" width="80" height="80" as="geometry" />
        </mxCell>
        <mxCell id="mJnlvZl1TAp7Em3mBKQQ-52" style="edgeStyle=orthogonalEdgeStyle;rounded=0;orthogonalLoop=1;jettySize=auto;html=1;exitX=1;exitY=0.5;exitDx=0;exitDy=0;entryX=0;entryY=0.5;entryDx=0;entryDy=0;strokeColor=#FFFFFF;" parent="1" source="mJnlvZl1TAp7Em3mBKQQ-6" target="mJnlvZl1TAp7Em3mBKQQ-51" edge="1">
          <mxGeometry relative="1" as="geometry" />
        </mxCell>
        <mxCell id="mJnlvZl1TAp7Em3mBKQQ-69" style="edgeStyle=orthogonalEdgeStyle;rounded=0;orthogonalLoop=1;jettySize=auto;html=1;exitX=0.5;exitY=0;exitDx=0;exitDy=0;strokeColor=#FFFFFF;" parent="1" source="mJnlvZl1TAp7Em3mBKQQ-53" edge="1">
          <mxGeometry relative="1" as="geometry">
            <mxPoint x="680" y="280" as="targetPoint" />
            <Array as="points">
              <mxPoint x="640" y="280" />
            </Array>
          </mxGeometry>
        </mxCell>
        <mxCell id="mJnlvZl1TAp7Em3mBKQQ-80" style="edgeStyle=orthogonalEdgeStyle;rounded=0;orthogonalLoop=1;jettySize=auto;html=1;exitX=1;exitY=0.5;exitDx=0;exitDy=0;entryX=0;entryY=0.5;entryDx=0;entryDy=0;strokeColor=#FFFFFF;" parent="1" source="mJnlvZl1TAp7Em3mBKQQ-53" target="mJnlvZl1TAp7Em3mBKQQ-79" edge="1">
          <mxGeometry relative="1" as="geometry" />
        </mxCell>
        <mxCell id="mJnlvZl1TAp7Em3mBKQQ-53" value="&lt;font color=&quot;#ffffff&quot;&gt;Valid Args?&lt;/font&gt;" style="rhombus;whiteSpace=wrap;html=1;fillColor=#994C00;strokeColor=#FFCCCC;" parent="1" vertex="1">
          <mxGeometry x="600" y="290" width="80" height="80" as="geometry" />
        </mxCell>
        <mxCell id="mJnlvZl1TAp7Em3mBKQQ-71" style="edgeStyle=orthogonalEdgeStyle;rounded=0;orthogonalLoop=1;jettySize=auto;html=1;exitX=0.5;exitY=1;exitDx=0;exitDy=0;entryX=0;entryY=0.5;entryDx=0;entryDy=0;strokeColor=#FFFFFF;" parent="1" source="mJnlvZl1TAp7Em3mBKQQ-55" target="mJnlvZl1TAp7Em3mBKQQ-70" edge="1">
          <mxGeometry relative="1" as="geometry">
            <Array as="points">
              <mxPoint x="640" y="580" />
            </Array>
          </mxGeometry>
        </mxCell>
        <mxCell id="mJnlvZl1TAp7Em3mBKQQ-84" style="edgeStyle=orthogonalEdgeStyle;rounded=0;orthogonalLoop=1;jettySize=auto;html=1;exitX=1;exitY=0.5;exitDx=0;exitDy=0;entryX=0;entryY=0.5;entryDx=0;entryDy=0;strokeColor=#FFFFFF;" parent="1" source="mJnlvZl1TAp7Em3mBKQQ-55" target="mJnlvZl1TAp7Em3mBKQQ-83" edge="1">
          <mxGeometry relative="1" as="geometry" />
        </mxCell>
        <mxCell id="mJnlvZl1TAp7Em3mBKQQ-55" value="&lt;font color=&quot;#ffffff&quot;&gt;Valid Args?&lt;/font&gt;" style="rhombus;whiteSpace=wrap;html=1;fillColor=#994C00;strokeColor=#FFCCCC;" parent="1" vertex="1">
          <mxGeometry x="600" y="490" width="80" height="80" as="geometry" />
        </mxCell>
        <mxCell id="mJnlvZl1TAp7Em3mBKQQ-72" style="edgeStyle=orthogonalEdgeStyle;rounded=0;orthogonalLoop=1;jettySize=auto;html=1;exitX=0.5;exitY=0;exitDx=0;exitDy=0;strokeColor=#FFFFFF;" parent="1" source="mJnlvZl1TAp7Em3mBKQQ-58" edge="1">
          <mxGeometry relative="1" as="geometry">
            <mxPoint x="680" y="580" as="targetPoint" />
            <Array as="points">
              <mxPoint x="640" y="580" />
            </Array>
          </mxGeometry>
        </mxCell>
        <mxCell id="mJnlvZl1TAp7Em3mBKQQ-86" style="edgeStyle=orthogonalEdgeStyle;rounded=0;orthogonalLoop=1;jettySize=auto;html=1;exitX=1;exitY=0.5;exitDx=0;exitDy=0;entryX=0;entryY=0.5;entryDx=0;entryDy=0;strokeColor=#FFFFFF;" parent="1" source="mJnlvZl1TAp7Em3mBKQQ-58" target="mJnlvZl1TAp7Em3mBKQQ-85" edge="1">
          <mxGeometry relative="1" as="geometry" />
        </mxCell>
        <mxCell id="mJnlvZl1TAp7Em3mBKQQ-58" value="&lt;font color=&quot;#ffffff&quot;&gt;Valid Args?&lt;/font&gt;" style="rhombus;whiteSpace=wrap;html=1;fillColor=#994C00;strokeColor=#FFCCCC;" parent="1" vertex="1">
          <mxGeometry x="600" y="590" width="80" height="80" as="geometry" />
        </mxCell>
        <mxCell id="mJnlvZl1TAp7Em3mBKQQ-74" style="edgeStyle=orthogonalEdgeStyle;rounded=0;orthogonalLoop=1;jettySize=auto;html=1;exitX=0.5;exitY=1;exitDx=0;exitDy=0;entryX=0;entryY=0.5;entryDx=0;entryDy=0;strokeColor=#FFFFFF;" parent="1" source="mJnlvZl1TAp7Em3mBKQQ-60" target="mJnlvZl1TAp7Em3mBKQQ-73" edge="1">
          <mxGeometry relative="1" as="geometry">
            <Array as="points">
              <mxPoint x="640" y="880" />
            </Array>
          </mxGeometry>
        </mxCell>
        <mxCell id="mJnlvZl1TAp7Em3mBKQQ-90" style="edgeStyle=orthogonalEdgeStyle;rounded=0;orthogonalLoop=1;jettySize=auto;html=1;exitX=1;exitY=0.5;exitDx=0;exitDy=0;entryX=0;entryY=0.5;entryDx=0;entryDy=0;strokeColor=#FFFFFF;" parent="1" source="mJnlvZl1TAp7Em3mBKQQ-60" target="mJnlvZl1TAp7Em3mBKQQ-89" edge="1">
          <mxGeometry relative="1" as="geometry" />
        </mxCell>
        <mxCell id="mJnlvZl1TAp7Em3mBKQQ-60" value="&lt;font color=&quot;#ffffff&quot;&gt;Valid Args?&lt;/font&gt;" style="rhombus;whiteSpace=wrap;html=1;fillColor=#994C00;strokeColor=#FFCCCC;" parent="1" vertex="1">
          <mxGeometry x="600" y="790" width="80" height="80" as="geometry" />
        </mxCell>
        <mxCell id="mJnlvZl1TAp7Em3mBKQQ-75" style="edgeStyle=orthogonalEdgeStyle;rounded=0;orthogonalLoop=1;jettySize=auto;html=1;exitX=0.5;exitY=0;exitDx=0;exitDy=0;strokeColor=#FFFFFF;" parent="1" source="mJnlvZl1TAp7Em3mBKQQ-64" edge="1">
          <mxGeometry relative="1" as="geometry">
            <mxPoint x="680" y="880" as="targetPoint" />
            <Array as="points">
              <mxPoint x="640" y="880" />
            </Array>
          </mxGeometry>
        </mxCell>
        <mxCell id="mJnlvZl1TAp7Em3mBKQQ-92" style="edgeStyle=orthogonalEdgeStyle;rounded=0;orthogonalLoop=1;jettySize=auto;html=1;exitX=1;exitY=0.5;exitDx=0;exitDy=0;entryX=0;entryY=0.5;entryDx=0;entryDy=0;strokeColor=#FFFFFF;" parent="1" source="mJnlvZl1TAp7Em3mBKQQ-64" target="mJnlvZl1TAp7Em3mBKQQ-91" edge="1">
          <mxGeometry relative="1" as="geometry" />
        </mxCell>
        <mxCell id="mJnlvZl1TAp7Em3mBKQQ-64" value="&lt;font color=&quot;#ffffff&quot;&gt;Valid Args?&lt;/font&gt;" style="rhombus;whiteSpace=wrap;html=1;fillColor=#994C00;strokeColor=#FFCCCC;" parent="1" vertex="1">
          <mxGeometry x="600" y="890" width="80" height="80" as="geometry" />
        </mxCell>
        <mxCell id="mJnlvZl1TAp7Em3mBKQQ-67" value="&lt;font color=&quot;#ffffff&quot;&gt;Throw Invalid Arg Exception&lt;/font&gt;" style="whiteSpace=wrap;html=1;aspect=fixed;fillColor=#666600;strokeColor=#FFFFCC;" parent="1" vertex="1">
          <mxGeometry x="680" y="240" width="80" height="80" as="geometry" />
        </mxCell>
        <mxCell id="mJnlvZl1TAp7Em3mBKQQ-70" value="&lt;font color=&quot;#ffffff&quot;&gt;Throw Invalid Arg Exception&lt;/font&gt;" style="whiteSpace=wrap;html=1;aspect=fixed;fillColor=#666600;strokeColor=#FFFFCC;" parent="1" vertex="1">
          <mxGeometry x="680" y="540" width="80" height="80" as="geometry" />
        </mxCell>
        <mxCell id="mJnlvZl1TAp7Em3mBKQQ-73" value="&lt;font color=&quot;#ffffff&quot;&gt;Throw Invalid Arg Exception&lt;/font&gt;" style="whiteSpace=wrap;html=1;aspect=fixed;fillColor=#666600;strokeColor=#FFFFCC;" parent="1" vertex="1">
          <mxGeometry x="680" y="840" width="80" height="80" as="geometry" />
        </mxCell>
        <mxCell id="mJnlvZl1TAp7Em3mBKQQ-76" value="No" style="text;html=1;strokeColor=none;fillColor=none;align=center;verticalAlign=middle;whiteSpace=wrap;rounded=0;fontColor=#FFFFFF;fontStyle=0;spacingLeft=0;fontSize=12;" parent="1" vertex="1">
          <mxGeometry x="600" y="265" width="40" height="30" as="geometry" />
        </mxCell>
        <mxCell id="mJnlvZl1TAp7Em3mBKQQ-77" value="No" style="text;html=1;strokeColor=none;fillColor=none;align=center;verticalAlign=middle;whiteSpace=wrap;rounded=0;fontColor=#FFFFFF;fontStyle=0;spacingLeft=0;fontSize=12;" parent="1" vertex="1">
          <mxGeometry x="600" y="565" width="40" height="30" as="geometry" />
        </mxCell>
        <mxCell id="mJnlvZl1TAp7Em3mBKQQ-78" value="No" style="text;html=1;strokeColor=none;fillColor=none;align=center;verticalAlign=middle;whiteSpace=wrap;rounded=0;fontColor=#FFFFFF;fontStyle=0;spacingLeft=0;fontSize=12;" parent="1" vertex="1">
          <mxGeometry x="600" y="865" width="40" height="30" as="geometry" />
        </mxCell>
        <mxCell id="mJnlvZl1TAp7Em3mBKQQ-99" style="edgeStyle=orthogonalEdgeStyle;rounded=0;orthogonalLoop=1;jettySize=auto;html=1;exitX=0.5;exitY=1;exitDx=0;exitDy=0;entryX=1;entryY=0.5;entryDx=0;entryDy=0;strokeColor=#FFFFFF;" parent="1" source="mJnlvZl1TAp7Em3mBKQQ-79" target="mJnlvZl1TAp7Em3mBKQQ-98" edge="1">
          <mxGeometry relative="1" as="geometry">
            <Array as="points">
              <mxPoint x="820" y="380" />
            </Array>
          </mxGeometry>
        </mxCell>
        <mxCell id="mJnlvZl1TAp7Em3mBKQQ-142" style="edgeStyle=orthogonalEdgeStyle;rounded=0;orthogonalLoop=1;jettySize=auto;html=1;exitX=1;exitY=0.5;exitDx=0;exitDy=0;entryX=0;entryY=0.5;entryDx=0;entryDy=0;strokeColor=#FFFFFF;" parent="1" source="mJnlvZl1TAp7Em3mBKQQ-79" target="mJnlvZl1TAp7Em3mBKQQ-141" edge="1">
          <mxGeometry relative="1" as="geometry" />
        </mxCell>
        <mxCell id="mJnlvZl1TAp7Em3mBKQQ-79" value="&lt;font color=&quot;#ffffff&quot;&gt;Keys Exist?&lt;/font&gt;" style="rhombus;whiteSpace=wrap;html=1;fillColor=#994C00;strokeColor=#FFCCCC;" parent="1" vertex="1">
          <mxGeometry x="780" y="290" width="80" height="80" as="geometry" />
        </mxCell>
        <mxCell id="mJnlvZl1TAp7Em3mBKQQ-100" style="edgeStyle=orthogonalEdgeStyle;rounded=0;orthogonalLoop=1;jettySize=auto;html=1;exitX=0.5;exitY=0;exitDx=0;exitDy=0;strokeColor=#FFFFFF;" parent="1" source="mJnlvZl1TAp7Em3mBKQQ-81" edge="1">
          <mxGeometry relative="1" as="geometry">
            <mxPoint x="780" y="380" as="targetPoint" />
            <Array as="points">
              <mxPoint x="820" y="380" />
            </Array>
          </mxGeometry>
        </mxCell>
        <mxCell id="mJnlvZl1TAp7Em3mBKQQ-152" style="edgeStyle=orthogonalEdgeStyle;rounded=0;orthogonalLoop=1;jettySize=auto;html=1;exitX=1;exitY=0.5;exitDx=0;exitDy=0;entryX=0;entryY=0.5;entryDx=0;entryDy=0;strokeColor=#FFFFFF;" parent="1" source="mJnlvZl1TAp7Em3mBKQQ-81" target="mJnlvZl1TAp7Em3mBKQQ-151" edge="1">
          <mxGeometry relative="1" as="geometry" />
        </mxCell>
        <mxCell id="mJnlvZl1TAp7Em3mBKQQ-81" value="&lt;font color=&quot;#ffffff&quot;&gt;Keys Exist?&lt;/font&gt;" style="rhombus;whiteSpace=wrap;html=1;fillColor=#994C00;strokeColor=#FFCCCC;" parent="1" vertex="1">
          <mxGeometry x="780" y="390" width="80" height="80" as="geometry" />
        </mxCell>
        <mxCell id="mJnlvZl1TAp7Em3mBKQQ-102" style="edgeStyle=orthogonalEdgeStyle;rounded=0;orthogonalLoop=1;jettySize=auto;html=1;exitX=0.5;exitY=0;exitDx=0;exitDy=0;entryX=1;entryY=0.5;entryDx=0;entryDy=0;strokeColor=#FFFFFF;" parent="1" source="mJnlvZl1TAp7Em3mBKQQ-83" target="mJnlvZl1TAp7Em3mBKQQ-101" edge="1">
          <mxGeometry relative="1" as="geometry">
            <Array as="points">
              <mxPoint x="820" y="480" />
            </Array>
          </mxGeometry>
        </mxCell>
        <mxCell id="mJnlvZl1TAp7Em3mBKQQ-156" style="edgeStyle=orthogonalEdgeStyle;rounded=0;orthogonalLoop=1;jettySize=auto;html=1;exitX=1;exitY=0.5;exitDx=0;exitDy=0;entryX=0;entryY=0.5;entryDx=0;entryDy=0;strokeColor=#FFFFFF;" parent="1" source="mJnlvZl1TAp7Em3mBKQQ-83" target="mJnlvZl1TAp7Em3mBKQQ-155" edge="1">
          <mxGeometry relative="1" as="geometry" />
        </mxCell>
        <mxCell id="mJnlvZl1TAp7Em3mBKQQ-83" value="&lt;font color=&quot;#ffffff&quot;&gt;Keys Exist?&lt;/font&gt;" style="rhombus;whiteSpace=wrap;html=1;fillColor=#994C00;strokeColor=#FFCCCC;" parent="1" vertex="1">
          <mxGeometry x="780" y="490" width="80" height="80" as="geometry" />
        </mxCell>
        <mxCell id="mJnlvZl1TAp7Em3mBKQQ-105" style="edgeStyle=orthogonalEdgeStyle;rounded=0;orthogonalLoop=1;jettySize=auto;html=1;exitX=0.5;exitY=1;exitDx=0;exitDy=0;strokeColor=#FFFFFF;" parent="1" source="mJnlvZl1TAp7Em3mBKQQ-85" edge="1">
          <mxGeometry relative="1" as="geometry">
            <mxPoint x="780" y="680" as="targetPoint" />
            <Array as="points">
              <mxPoint x="820" y="680" />
            </Array>
          </mxGeometry>
        </mxCell>
        <mxCell id="mJnlvZl1TAp7Em3mBKQQ-160" style="edgeStyle=orthogonalEdgeStyle;rounded=0;orthogonalLoop=1;jettySize=auto;html=1;exitX=1;exitY=0.5;exitDx=0;exitDy=0;entryX=0;entryY=0.5;entryDx=0;entryDy=0;strokeColor=#FFFFFF;" parent="1" source="mJnlvZl1TAp7Em3mBKQQ-85" target="mJnlvZl1TAp7Em3mBKQQ-159" edge="1">
          <mxGeometry relative="1" as="geometry" />
        </mxCell>
        <mxCell id="mJnlvZl1TAp7Em3mBKQQ-85" value="&lt;font color=&quot;#ffffff&quot;&gt;Keys Exist?&lt;/font&gt;" style="rhombus;whiteSpace=wrap;html=1;fillColor=#994C00;strokeColor=#FFCCCC;" parent="1" vertex="1">
          <mxGeometry x="780" y="590" width="80" height="80" as="geometry" />
        </mxCell>
        <mxCell id="mJnlvZl1TAp7Em3mBKQQ-104" style="edgeStyle=orthogonalEdgeStyle;rounded=0;orthogonalLoop=1;jettySize=auto;html=1;exitX=0.5;exitY=0;exitDx=0;exitDy=0;entryX=1;entryY=0.5;entryDx=0;entryDy=0;strokeColor=#FFFFFF;" parent="1" source="mJnlvZl1TAp7Em3mBKQQ-87" target="mJnlvZl1TAp7Em3mBKQQ-103" edge="1">
          <mxGeometry relative="1" as="geometry">
            <Array as="points">
              <mxPoint x="820" y="680" />
            </Array>
          </mxGeometry>
        </mxCell>
        <mxCell id="mJnlvZl1TAp7Em3mBKQQ-164" style="edgeStyle=orthogonalEdgeStyle;rounded=0;orthogonalLoop=1;jettySize=auto;html=1;exitX=1;exitY=0.5;exitDx=0;exitDy=0;entryX=0;entryY=0.5;entryDx=0;entryDy=0;strokeColor=#FFFFFF;" parent="1" source="mJnlvZl1TAp7Em3mBKQQ-87" target="mJnlvZl1TAp7Em3mBKQQ-163" edge="1">
          <mxGeometry relative="1" as="geometry" />
        </mxCell>
        <mxCell id="mJnlvZl1TAp7Em3mBKQQ-87" value="&lt;font color=&quot;#ffffff&quot;&gt;Keys Exist?&lt;/font&gt;" style="rhombus;whiteSpace=wrap;html=1;fillColor=#994C00;strokeColor=#FFCCCC;" parent="1" vertex="1">
          <mxGeometry x="780" y="690" width="80" height="80" as="geometry" />
        </mxCell>
        <mxCell id="mJnlvZl1TAp7Em3mBKQQ-107" style="edgeStyle=orthogonalEdgeStyle;rounded=0;orthogonalLoop=1;jettySize=auto;html=1;exitX=0.5;exitY=0;exitDx=0;exitDy=0;entryX=1;entryY=0.5;entryDx=0;entryDy=0;strokeColor=#FFFFFF;" parent="1" source="mJnlvZl1TAp7Em3mBKQQ-89" target="mJnlvZl1TAp7Em3mBKQQ-106" edge="1">
          <mxGeometry relative="1" as="geometry">
            <Array as="points">
              <mxPoint x="820" y="780" />
            </Array>
          </mxGeometry>
        </mxCell>
        <mxCell id="mJnlvZl1TAp7Em3mBKQQ-168" style="edgeStyle=orthogonalEdgeStyle;rounded=0;orthogonalLoop=1;jettySize=auto;html=1;exitX=1;exitY=0.5;exitDx=0;exitDy=0;entryX=0;entryY=0.5;entryDx=0;entryDy=0;strokeColor=#FFFFFF;" parent="1" source="mJnlvZl1TAp7Em3mBKQQ-89" target="mJnlvZl1TAp7Em3mBKQQ-167" edge="1">
          <mxGeometry relative="1" as="geometry" />
        </mxCell>
        <mxCell id="mJnlvZl1TAp7Em3mBKQQ-89" value="&lt;font color=&quot;#ffffff&quot;&gt;Keys Exist?&lt;/font&gt;" style="rhombus;whiteSpace=wrap;html=1;fillColor=#994C00;strokeColor=#FFCCCC;" parent="1" vertex="1">
          <mxGeometry x="780" y="790" width="80" height="80" as="geometry" />
        </mxCell>
        <mxCell id="mJnlvZl1TAp7Em3mBKQQ-110" style="edgeStyle=orthogonalEdgeStyle;rounded=0;orthogonalLoop=1;jettySize=auto;html=1;exitX=0.5;exitY=1;exitDx=0;exitDy=0;entryX=1;entryY=0.5;entryDx=0;entryDy=0;strokeColor=#FFFFFF;" parent="1" source="mJnlvZl1TAp7Em3mBKQQ-91" target="mJnlvZl1TAp7Em3mBKQQ-109" edge="1">
          <mxGeometry relative="1" as="geometry">
            <Array as="points">
              <mxPoint x="820" y="980" />
            </Array>
          </mxGeometry>
        </mxCell>
        <mxCell id="mJnlvZl1TAp7Em3mBKQQ-170" style="edgeStyle=orthogonalEdgeStyle;rounded=0;orthogonalLoop=1;jettySize=auto;html=1;exitX=1;exitY=0.5;exitDx=0;exitDy=0;entryX=0;entryY=0.5;entryDx=0;entryDy=0;strokeColor=#FFFFFF;" parent="1" source="mJnlvZl1TAp7Em3mBKQQ-91" target="mJnlvZl1TAp7Em3mBKQQ-169" edge="1">
          <mxGeometry relative="1" as="geometry" />
        </mxCell>
        <mxCell id="mJnlvZl1TAp7Em3mBKQQ-91" value="&lt;font color=&quot;#ffffff&quot;&gt;Keys Exist?&lt;/font&gt;" style="rhombus;whiteSpace=wrap;html=1;fillColor=#994C00;strokeColor=#FFCCCC;" parent="1" vertex="1">
          <mxGeometry x="780" y="890" width="80" height="80" as="geometry" />
        </mxCell>
        <mxCell id="mJnlvZl1TAp7Em3mBKQQ-111" style="edgeStyle=orthogonalEdgeStyle;rounded=0;orthogonalLoop=1;jettySize=auto;html=1;exitX=0.5;exitY=0;exitDx=0;exitDy=0;strokeColor=#FFFFFF;" parent="1" source="mJnlvZl1TAp7Em3mBKQQ-93" edge="1">
          <mxGeometry relative="1" as="geometry">
            <mxPoint x="780" y="980" as="targetPoint" />
            <Array as="points">
              <mxPoint x="820" y="980" />
            </Array>
          </mxGeometry>
        </mxCell>
        <mxCell id="mJnlvZl1TAp7Em3mBKQQ-184" style="edgeStyle=orthogonalEdgeStyle;rounded=0;orthogonalLoop=1;jettySize=auto;html=1;exitX=1;exitY=0.5;exitDx=0;exitDy=0;entryX=0;entryY=0.5;entryDx=0;entryDy=0;strokeColor=#FFFFFF;" parent="1" source="mJnlvZl1TAp7Em3mBKQQ-93" target="mJnlvZl1TAp7Em3mBKQQ-182" edge="1">
          <mxGeometry relative="1" as="geometry" />
        </mxCell>
        <mxCell id="mJnlvZl1TAp7Em3mBKQQ-93" value="&lt;font color=&quot;#ffffff&quot;&gt;Keys Exist?&lt;/font&gt;" style="rhombus;whiteSpace=wrap;html=1;fillColor=#994C00;strokeColor=#FFCCCC;" parent="1" vertex="1">
          <mxGeometry x="780" y="990" width="80" height="80" as="geometry" />
        </mxCell>
        <mxCell id="mJnlvZl1TAp7Em3mBKQQ-113" style="edgeStyle=orthogonalEdgeStyle;rounded=0;orthogonalLoop=1;jettySize=auto;html=1;exitX=0.5;exitY=0;exitDx=0;exitDy=0;entryX=1;entryY=0.5;entryDx=0;entryDy=0;strokeColor=#FFFFFF;" parent="1" source="mJnlvZl1TAp7Em3mBKQQ-95" target="mJnlvZl1TAp7Em3mBKQQ-112" edge="1">
          <mxGeometry relative="1" as="geometry">
            <Array as="points">
              <mxPoint x="820" y="1080" />
            </Array>
          </mxGeometry>
        </mxCell>
        <mxCell id="mJnlvZl1TAp7Em3mBKQQ-193" style="edgeStyle=orthogonalEdgeStyle;rounded=0;orthogonalLoop=1;jettySize=auto;html=1;exitX=1;exitY=0.5;exitDx=0;exitDy=0;entryX=0.5;entryY=0;entryDx=0;entryDy=0;strokeColor=#FFFFFF;" parent="1" source="mJnlvZl1TAp7Em3mBKQQ-95" target="mJnlvZl1TAp7Em3mBKQQ-192" edge="1">
          <mxGeometry relative="1" as="geometry" />
        </mxCell>
        <mxCell id="mJnlvZl1TAp7Em3mBKQQ-95" value="&lt;font color=&quot;#ffffff&quot;&gt;Keys Exist?&lt;/font&gt;" style="rhombus;whiteSpace=wrap;html=1;fillColor=#994C00;strokeColor=#FFCCCC;" parent="1" vertex="1">
          <mxGeometry x="780" y="1090" width="80" height="80" as="geometry" />
        </mxCell>
        <mxCell id="mJnlvZl1TAp7Em3mBKQQ-98" value="&lt;font color=&quot;#ffffff&quot;&gt;Throw Invalid Arg Exception&lt;/font&gt;" style="whiteSpace=wrap;html=1;aspect=fixed;fillColor=#666600;strokeColor=#FFFFCC;" parent="1" vertex="1">
          <mxGeometry x="700" y="340" width="80" height="80" as="geometry" />
        </mxCell>
        <mxCell id="mJnlvZl1TAp7Em3mBKQQ-101" value="&lt;font color=&quot;#ffffff&quot;&gt;Throw Invalid Arg Exception&lt;/font&gt;" style="whiteSpace=wrap;html=1;aspect=fixed;fillColor=#666600;strokeColor=#FFFFCC;" parent="1" vertex="1">
          <mxGeometry x="700" y="440" width="80" height="80" as="geometry" />
        </mxCell>
        <mxCell id="mJnlvZl1TAp7Em3mBKQQ-103" value="&lt;font color=&quot;#ffffff&quot;&gt;Throw Invalid Arg Exception&lt;/font&gt;" style="whiteSpace=wrap;html=1;aspect=fixed;fillColor=#666600;strokeColor=#FFFFCC;" parent="1" vertex="1">
          <mxGeometry x="700" y="640" width="80" height="80" as="geometry" />
        </mxCell>
        <mxCell id="mJnlvZl1TAp7Em3mBKQQ-106" value="&lt;font color=&quot;#ffffff&quot;&gt;Throw Invalid Arg Exception&lt;/font&gt;" style="whiteSpace=wrap;html=1;aspect=fixed;fillColor=#666600;strokeColor=#FFFFCC;" parent="1" vertex="1">
          <mxGeometry x="700" y="740" width="80" height="80" as="geometry" />
        </mxCell>
        <mxCell id="mJnlvZl1TAp7Em3mBKQQ-109" value="&lt;font color=&quot;#ffffff&quot;&gt;Throw Invalid Arg Exception&lt;/font&gt;" style="whiteSpace=wrap;html=1;aspect=fixed;fillColor=#666600;strokeColor=#FFFFCC;" parent="1" vertex="1">
          <mxGeometry x="700" y="940" width="80" height="80" as="geometry" />
        </mxCell>
        <mxCell id="mJnlvZl1TAp7Em3mBKQQ-112" value="&lt;font color=&quot;#ffffff&quot;&gt;Throw Invalid Arg Exception&lt;/font&gt;" style="whiteSpace=wrap;html=1;aspect=fixed;fillColor=#666600;strokeColor=#FFFFCC;" parent="1" vertex="1">
          <mxGeometry x="700" y="1040" width="80" height="80" as="geometry" />
        </mxCell>
        <mxCell id="mJnlvZl1TAp7Em3mBKQQ-114" value="No" style="text;html=1;strokeColor=none;fillColor=none;align=center;verticalAlign=middle;whiteSpace=wrap;rounded=0;fontColor=#FFFFFF;fontStyle=0;spacingLeft=0;fontSize=12;" parent="1" vertex="1">
          <mxGeometry x="820" y="365" width="40" height="30" as="geometry" />
        </mxCell>
        <mxCell id="mJnlvZl1TAp7Em3mBKQQ-115" value="No" style="text;html=1;strokeColor=none;fillColor=none;align=center;verticalAlign=middle;whiteSpace=wrap;rounded=0;fontColor=#FFFFFF;fontStyle=0;spacingLeft=0;fontSize=12;" parent="1" vertex="1">
          <mxGeometry x="820" y="465" width="40" height="30" as="geometry" />
        </mxCell>
        <mxCell id="mJnlvZl1TAp7Em3mBKQQ-116" value="No" style="text;html=1;strokeColor=none;fillColor=none;align=center;verticalAlign=middle;whiteSpace=wrap;rounded=0;fontColor=#FFFFFF;fontStyle=0;spacingLeft=0;fontSize=12;" parent="1" vertex="1">
          <mxGeometry x="820" y="665" width="40" height="30" as="geometry" />
        </mxCell>
        <mxCell id="mJnlvZl1TAp7Em3mBKQQ-117" value="No" style="text;html=1;strokeColor=none;fillColor=none;align=center;verticalAlign=middle;whiteSpace=wrap;rounded=0;fontColor=#FFFFFF;fontStyle=0;spacingLeft=0;fontSize=12;" parent="1" vertex="1">
          <mxGeometry x="820" y="765" width="40" height="30" as="geometry" />
        </mxCell>
        <mxCell id="mJnlvZl1TAp7Em3mBKQQ-118" value="No" style="text;html=1;strokeColor=none;fillColor=none;align=center;verticalAlign=middle;whiteSpace=wrap;rounded=0;fontColor=#FFFFFF;fontStyle=0;spacingLeft=0;fontSize=12;" parent="1" vertex="1">
          <mxGeometry x="820" y="965" width="40" height="30" as="geometry" />
        </mxCell>
        <mxCell id="mJnlvZl1TAp7Em3mBKQQ-119" value="No" style="text;html=1;strokeColor=none;fillColor=none;align=center;verticalAlign=middle;whiteSpace=wrap;rounded=0;fontColor=#FFFFFF;fontStyle=0;spacingLeft=0;fontSize=12;" parent="1" vertex="1">
          <mxGeometry x="820" y="1065" width="40" height="30" as="geometry" />
        </mxCell>
        <mxCell id="mJnlvZl1TAp7Em3mBKQQ-130" style="edgeStyle=orthogonalEdgeStyle;rounded=0;orthogonalLoop=1;jettySize=auto;html=1;exitX=0.5;exitY=0;exitDx=0;exitDy=0;entryX=0.5;entryY=1;entryDx=0;entryDy=0;strokeColor=#FFFFFF;" parent="1" source="mJnlvZl1TAp7Em3mBKQQ-120" target="mJnlvZl1TAp7Em3mBKQQ-129" edge="1">
          <mxGeometry relative="1" as="geometry" />
        </mxCell>
        <mxCell id="mJnlvZl1TAp7Em3mBKQQ-120" value="&lt;font color=&quot;#ffffff&quot;&gt;Create Member and add to the Key.&lt;/font&gt;" style="whiteSpace=wrap;html=1;aspect=fixed;fillColor=#994C00;strokeColor=#FFE6CC;" parent="1" vertex="1">
          <mxGeometry x="880" y="190" width="80" height="80" as="geometry" />
        </mxCell>
        <mxCell id="mJnlvZl1TAp7Em3mBKQQ-124" value="Item Repo" style="text;html=1;strokeColor=none;fillColor=none;align=left;verticalAlign=middle;whiteSpace=wrap;rounded=0;fontColor=#FFFFFF;fontStyle=1;spacingLeft=5;fontSize=16;" parent="1" vertex="1">
          <mxGeometry x="660" y="-90" width="130" height="30" as="geometry" />
        </mxCell>
        <mxCell id="mJnlvZl1TAp7Em3mBKQQ-125" value="&lt;font color=&quot;#ffffff&quot;&gt;Check if Key/Keys exists.&lt;/font&gt;" style="whiteSpace=wrap;html=1;aspect=fixed;fillColor=#4D9900;strokeColor=#E6FFCC;" parent="1" vertex="1">
          <mxGeometry x="780" y="40" width="80" height="80" as="geometry" />
        </mxCell>
        <mxCell id="mJnlvZl1TAp7Em3mBKQQ-132" style="edgeStyle=orthogonalEdgeStyle;rounded=0;orthogonalLoop=1;jettySize=auto;html=1;exitX=1;exitY=0.5;exitDx=0;exitDy=0;entryX=0;entryY=0.5;entryDx=0;entryDy=0;strokeColor=#FFFFFF;" parent="1" source="mJnlvZl1TAp7Em3mBKQQ-129" target="mJnlvZl1TAp7Em3mBKQQ-131" edge="1">
          <mxGeometry relative="1" as="geometry" />
        </mxCell>
        <mxCell id="mJnlvZl1TAp7Em3mBKQQ-135" style="edgeStyle=orthogonalEdgeStyle;rounded=0;orthogonalLoop=1;jettySize=auto;html=1;exitX=0.5;exitY=0;exitDx=0;exitDy=0;entryX=0.5;entryY=1;entryDx=0;entryDy=0;strokeColor=#FFFFFF;" parent="1" source="mJnlvZl1TAp7Em3mBKQQ-129" target="mJnlvZl1TAp7Em3mBKQQ-134" edge="1">
          <mxGeometry relative="1" as="geometry" />
        </mxCell>
        <mxCell id="mJnlvZl1TAp7Em3mBKQQ-129" value="&lt;font color=&quot;#ffffff&quot;&gt;Member exists?&lt;/font&gt;" style="rhombus;whiteSpace=wrap;html=1;fillColor=#4D9900;strokeColor=#E6FFCC;" parent="1" vertex="1">
          <mxGeometry x="880" y="40" width="80" height="80" as="geometry" />
        </mxCell>
        <mxCell id="mJnlvZl1TAp7Em3mBKQQ-131" value="&lt;font color=&quot;#ffffff&quot;&gt;Throw Invalid Arg Exception&lt;/font&gt;" style="whiteSpace=wrap;html=1;aspect=fixed;fillColor=#666600;strokeColor=#FFFFCC;" parent="1" vertex="1">
          <mxGeometry x="980" y="40" width="80" height="80" as="geometry" />
        </mxCell>
        <mxCell id="mJnlvZl1TAp7Em3mBKQQ-133" value="Yes" style="text;html=1;strokeColor=none;fillColor=none;align=center;verticalAlign=middle;whiteSpace=wrap;rounded=0;fontColor=#FFFFFF;fontStyle=0;spacingLeft=0;fontSize=12;" parent="1" vertex="1">
          <mxGeometry x="940" y="90" width="40" height="30" as="geometry" />
        </mxCell>
        <mxCell id="mJnlvZl1TAp7Em3mBKQQ-134" value="&lt;font color=&quot;#ffffff&quot;&gt;Add member to Key.&lt;/font&gt;" style="whiteSpace=wrap;html=1;aspect=fixed;fillColor=#4D9900;strokeColor=#E6FFCC;" parent="1" vertex="1">
          <mxGeometry x="880" y="-60" width="80" height="80" as="geometry" />
        </mxCell>
        <mxCell id="mJnlvZl1TAp7Em3mBKQQ-138" value="&lt;font color=&quot;#ffffff&quot;&gt;Check if Member exists.&lt;/font&gt;" style="whiteSpace=wrap;html=1;aspect=fixed;fillColor=#4D9900;strokeColor=#E6FFCC;" parent="1" vertex="1">
          <mxGeometry x="1080" y="40" width="80" height="80" as="geometry" />
        </mxCell>
        <mxCell id="mJnlvZl1TAp7Em3mBKQQ-143" style="edgeStyle=orthogonalEdgeStyle;rounded=0;orthogonalLoop=1;jettySize=auto;html=1;exitX=0.5;exitY=0;exitDx=0;exitDy=0;entryX=0.5;entryY=1;entryDx=0;entryDy=0;strokeColor=#FFFFFF;" parent="1" source="mJnlvZl1TAp7Em3mBKQQ-141" target="mJnlvZl1TAp7Em3mBKQQ-138" edge="1">
          <mxGeometry relative="1" as="geometry">
            <Array as="points">
              <mxPoint x="920" y="280" />
              <mxPoint x="1120" y="280" />
            </Array>
          </mxGeometry>
        </mxCell>
        <mxCell id="mJnlvZl1TAp7Em3mBKQQ-146" style="edgeStyle=orthogonalEdgeStyle;rounded=0;orthogonalLoop=1;jettySize=auto;html=1;exitX=0.5;exitY=1;exitDx=0;exitDy=0;entryX=0;entryY=0.5;entryDx=0;entryDy=0;strokeColor=#FFFFFF;" parent="1" source="mJnlvZl1TAp7Em3mBKQQ-141" target="mJnlvZl1TAp7Em3mBKQQ-144" edge="1">
          <mxGeometry relative="1" as="geometry">
            <Array as="points">
              <mxPoint x="920" y="380" />
            </Array>
          </mxGeometry>
        </mxCell>
        <mxCell id="mJnlvZl1TAp7Em3mBKQQ-150" style="edgeStyle=orthogonalEdgeStyle;rounded=0;orthogonalLoop=1;jettySize=auto;html=1;exitX=1;exitY=0.5;exitDx=0;exitDy=0;entryX=0;entryY=0.5;entryDx=0;entryDy=0;strokeColor=#FFFFFF;" parent="1" source="mJnlvZl1TAp7Em3mBKQQ-141" target="mJnlvZl1TAp7Em3mBKQQ-149" edge="1">
          <mxGeometry relative="1" as="geometry" />
        </mxCell>
        <mxCell id="mJnlvZl1TAp7Em3mBKQQ-141" value="&lt;font color=&quot;#ffffff&quot;&gt;Member exists?&lt;/font&gt;" style="rhombus;whiteSpace=wrap;html=1;fillColor=#994C00;strokeColor=#FFCCCC;" parent="1" vertex="1">
          <mxGeometry x="880" y="290" width="80" height="80" as="geometry" />
        </mxCell>
        <mxCell id="mJnlvZl1TAp7Em3mBKQQ-144" value="&lt;font color=&quot;#ffffff&quot;&gt;Throw Invalid Arg Exception&lt;/font&gt;" style="whiteSpace=wrap;html=1;aspect=fixed;fillColor=#666600;strokeColor=#FFFFCC;" parent="1" vertex="1">
          <mxGeometry x="960" y="340" width="80" height="80" as="geometry" />
        </mxCell>
        <mxCell id="mJnlvZl1TAp7Em3mBKQQ-147" value="No" style="text;html=1;strokeColor=none;fillColor=none;align=center;verticalAlign=middle;whiteSpace=wrap;rounded=0;fontColor=#FFFFFF;fontStyle=0;spacingLeft=0;fontSize=12;" parent="1" vertex="1">
          <mxGeometry x="920" y="380" width="40" height="30" as="geometry" />
        </mxCell>
        <mxCell id="QLSgSdQPPWV6pEswoW_q-5" style="edgeStyle=orthogonalEdgeStyle;rounded=0;orthogonalLoop=1;jettySize=auto;html=1;exitX=1;exitY=0.5;exitDx=0;exitDy=0;entryX=0;entryY=0.5;entryDx=0;entryDy=0;strokeColor=#FFFFFF;" edge="1" parent="1" source="mJnlvZl1TAp7Em3mBKQQ-149" target="QLSgSdQPPWV6pEswoW_q-2">
          <mxGeometry relative="1" as="geometry" />
        </mxCell>
        <mxCell id="mJnlvZl1TAp7Em3mBKQQ-149" value="&lt;font color=&quot;#ffffff&quot;&gt;Remove Member&lt;br&gt;&lt;/font&gt;" style="whiteSpace=wrap;html=1;aspect=fixed;fillColor=#994C00;strokeColor=#FFE6CC;" parent="1" vertex="1">
          <mxGeometry x="1060" y="290" width="80" height="80" as="geometry" />
        </mxCell>
        <mxCell id="mJnlvZl1TAp7Em3mBKQQ-154" style="edgeStyle=orthogonalEdgeStyle;rounded=0;orthogonalLoop=1;jettySize=auto;html=1;exitX=0.5;exitY=0;exitDx=0;exitDy=0;entryX=0.5;entryY=1;entryDx=0;entryDy=0;strokeColor=#FFFFFF;" parent="1" source="mJnlvZl1TAp7Em3mBKQQ-151" target="mJnlvZl1TAp7Em3mBKQQ-153" edge="1">
          <mxGeometry relative="1" as="geometry">
            <Array as="points">
              <mxPoint x="1100" y="380" />
              <mxPoint x="1290" y="380" />
              <mxPoint x="1290" y="150" />
              <mxPoint x="1220" y="150" />
            </Array>
          </mxGeometry>
        </mxCell>
        <mxCell id="mJnlvZl1TAp7Em3mBKQQ-151" value="&lt;font color=&quot;#ffffff&quot;&gt;Return Keys&lt;br&gt;&lt;/font&gt;" style="whiteSpace=wrap;html=1;aspect=fixed;fillColor=#994C00;strokeColor=#FFE6CC;" parent="1" vertex="1">
          <mxGeometry x="1060" y="390" width="80" height="80" as="geometry" />
        </mxCell>
        <mxCell id="mJnlvZl1TAp7Em3mBKQQ-153" value="&lt;font color=&quot;#ffffff&quot;&gt;Get list of Keys.&lt;/font&gt;" style="whiteSpace=wrap;html=1;aspect=fixed;fillColor=#4D9900;strokeColor=#E6FFCC;" parent="1" vertex="1">
          <mxGeometry x="1180" y="40" width="80" height="80" as="geometry" />
        </mxCell>
        <mxCell id="mJnlvZl1TAp7Em3mBKQQ-158" style="edgeStyle=orthogonalEdgeStyle;rounded=0;orthogonalLoop=1;jettySize=auto;html=1;exitX=0.5;exitY=0;exitDx=0;exitDy=0;entryX=0.5;entryY=1;entryDx=0;entryDy=0;strokeColor=#FFFFFF;" parent="1" source="mJnlvZl1TAp7Em3mBKQQ-155" target="mJnlvZl1TAp7Em3mBKQQ-157" edge="1">
          <mxGeometry relative="1" as="geometry">
            <Array as="points">
              <mxPoint x="1160" y="480" />
              <mxPoint x="1350" y="480" />
              <mxPoint x="1350" y="150" />
              <mxPoint x="1315" y="150" />
            </Array>
          </mxGeometry>
        </mxCell>
        <mxCell id="mJnlvZl1TAp7Em3mBKQQ-155" value="&lt;font color=&quot;#ffffff&quot;&gt;Return Members list for Key.&lt;br&gt;&lt;/font&gt;" style="whiteSpace=wrap;html=1;aspect=fixed;fillColor=#994C00;strokeColor=#FFE6CC;" parent="1" vertex="1">
          <mxGeometry x="1120" y="490" width="80" height="80" as="geometry" />
        </mxCell>
        <mxCell id="mJnlvZl1TAp7Em3mBKQQ-157" value="&lt;font color=&quot;#ffffff&quot;&gt;Get list of Members.&lt;/font&gt;" style="whiteSpace=wrap;html=1;aspect=fixed;fillColor=#4D9900;strokeColor=#E6FFCC;" parent="1" vertex="1">
          <mxGeometry x="1275" y="40" width="80" height="80" as="geometry" />
        </mxCell>
        <mxCell id="mJnlvZl1TAp7Em3mBKQQ-162" style="edgeStyle=orthogonalEdgeStyle;rounded=0;orthogonalLoop=1;jettySize=auto;html=1;exitX=1;exitY=0.5;exitDx=0;exitDy=0;entryX=0.5;entryY=1;entryDx=0;entryDy=0;strokeColor=#FFFFFF;" parent="1" source="mJnlvZl1TAp7Em3mBKQQ-159" target="mJnlvZl1TAp7Em3mBKQQ-161" edge="1">
          <mxGeometry relative="1" as="geometry">
            <Array as="points">
              <mxPoint x="1360" y="630" />
              <mxPoint x="1360" y="150" />
              <mxPoint x="1410" y="150" />
            </Array>
          </mxGeometry>
        </mxCell>
        <mxCell id="mJnlvZl1TAp7Em3mBKQQ-159" value="&lt;font color=&quot;#ffffff&quot;&gt;Remove all Members for the Key.&lt;br&gt;&lt;/font&gt;" style="whiteSpace=wrap;html=1;aspect=fixed;fillColor=#994C00;strokeColor=#FFE6CC;" parent="1" vertex="1">
          <mxGeometry x="880" y="590" width="80" height="80" as="geometry" />
        </mxCell>
        <mxCell id="mJnlvZl1TAp7Em3mBKQQ-161" value="&lt;font color=&quot;#ffffff&quot;&gt;Remove Members of Key.&lt;/font&gt;" style="whiteSpace=wrap;html=1;aspect=fixed;fillColor=#4D9900;strokeColor=#E6FFCC;" parent="1" vertex="1">
          <mxGeometry x="1370" y="40" width="80" height="80" as="geometry" />
        </mxCell>
        <mxCell id="mJnlvZl1TAp7Em3mBKQQ-166" style="edgeStyle=orthogonalEdgeStyle;rounded=0;orthogonalLoop=1;jettySize=auto;html=1;exitX=1;exitY=0.5;exitDx=0;exitDy=0;entryX=0.5;entryY=1;entryDx=0;entryDy=0;strokeColor=#FFFFFF;" parent="1" source="mJnlvZl1TAp7Em3mBKQQ-163" target="mJnlvZl1TAp7Em3mBKQQ-165" edge="1">
          <mxGeometry relative="1" as="geometry">
            <Array as="points">
              <mxPoint x="1370" y="730" />
              <mxPoint x="1370" y="160" />
              <mxPoint x="1510" y="160" />
            </Array>
          </mxGeometry>
        </mxCell>
        <mxCell id="mJnlvZl1TAp7Em3mBKQQ-163" value="&lt;font color=&quot;#ffffff&quot;&gt;Remove all Members and Keys.&lt;br&gt;&lt;/font&gt;" style="whiteSpace=wrap;html=1;aspect=fixed;fillColor=#994C00;strokeColor=#FFE6CC;" parent="1" vertex="1">
          <mxGeometry x="880" y="690" width="80" height="80" as="geometry" />
        </mxCell>
        <mxCell id="mJnlvZl1TAp7Em3mBKQQ-165" value="&lt;font color=&quot;#ffffff&quot;&gt;Remove all Members and Keys.&lt;/font&gt;" style="whiteSpace=wrap;html=1;aspect=fixed;fillColor=#4D9900;strokeColor=#E6FFCC;" parent="1" vertex="1">
          <mxGeometry x="1470" y="40" width="80" height="80" as="geometry" />
        </mxCell>
        <mxCell id="mJnlvZl1TAp7Em3mBKQQ-167" value="&lt;font color=&quot;#ffffff&quot;&gt;Return true.&lt;br&gt;&lt;/font&gt;" style="whiteSpace=wrap;html=1;aspect=fixed;fillColor=#994C00;strokeColor=#FFE6CC;" parent="1" vertex="1">
          <mxGeometry x="880" y="790" width="80" height="80" as="geometry" />
        </mxCell>
        <mxCell id="mJnlvZl1TAp7Em3mBKQQ-172" style="edgeStyle=orthogonalEdgeStyle;rounded=0;orthogonalLoop=1;jettySize=auto;html=1;exitX=0.5;exitY=0;exitDx=0;exitDy=0;entryX=0;entryY=0.5;entryDx=0;entryDy=0;strokeColor=#FFFFFF;" parent="1" source="mJnlvZl1TAp7Em3mBKQQ-169" target="mJnlvZl1TAp7Em3mBKQQ-171" edge="1">
          <mxGeometry relative="1" as="geometry">
            <Array as="points">
              <mxPoint x="920" y="880" />
            </Array>
          </mxGeometry>
        </mxCell>
        <mxCell id="mJnlvZl1TAp7Em3mBKQQ-175" style="edgeStyle=orthogonalEdgeStyle;rounded=0;orthogonalLoop=1;jettySize=auto;html=1;exitX=1;exitY=0.5;exitDx=0;exitDy=0;entryX=0;entryY=0.5;entryDx=0;entryDy=0;strokeColor=#FFFFFF;" parent="1" source="mJnlvZl1TAp7Em3mBKQQ-169" target="mJnlvZl1TAp7Em3mBKQQ-174" edge="1">
          <mxGeometry relative="1" as="geometry" />
        </mxCell>
        <mxCell id="mJnlvZl1TAp7Em3mBKQQ-181" style="edgeStyle=orthogonalEdgeStyle;rounded=0;orthogonalLoop=1;jettySize=auto;html=1;exitX=0.5;exitY=1;exitDx=0;exitDy=0;entryX=0;entryY=0.5;entryDx=0;entryDy=0;strokeColor=#FFFFFF;" parent="1" source="mJnlvZl1TAp7Em3mBKQQ-169" target="mJnlvZl1TAp7Em3mBKQQ-176" edge="1">
          <mxGeometry relative="1" as="geometry">
            <Array as="points">
              <mxPoint x="920" y="980" />
              <mxPoint x="1020" y="980" />
              <mxPoint x="1020" y="1015" />
            </Array>
          </mxGeometry>
        </mxCell>
        <mxCell id="mJnlvZl1TAp7Em3mBKQQ-169" value="&lt;font color=&quot;#ffffff&quot;&gt;Member exists?&lt;/font&gt;" style="rhombus;whiteSpace=wrap;html=1;fillColor=#994C00;strokeColor=#FFCCCC;" parent="1" vertex="1">
          <mxGeometry x="880" y="890" width="80" height="80" as="geometry" />
        </mxCell>
        <mxCell id="mJnlvZl1TAp7Em3mBKQQ-171" value="&lt;font color=&quot;#ffffff&quot;&gt;Throw Invalid Arg Exception&lt;/font&gt;" style="whiteSpace=wrap;html=1;aspect=fixed;fillColor=#666600;strokeColor=#FFFFCC;" parent="1" vertex="1">
          <mxGeometry x="970" y="840" width="80" height="80" as="geometry" />
        </mxCell>
        <mxCell id="mJnlvZl1TAp7Em3mBKQQ-173" value="No" style="text;html=1;strokeColor=none;fillColor=none;align=center;verticalAlign=middle;whiteSpace=wrap;rounded=0;fontColor=#FFFFFF;fontStyle=0;spacingLeft=0;fontSize=12;" parent="1" vertex="1">
          <mxGeometry x="880" y="870" width="40" height="30" as="geometry" />
        </mxCell>
        <mxCell id="mJnlvZl1TAp7Em3mBKQQ-174" value="&lt;font color=&quot;#ffffff&quot;&gt;Return true.&lt;br&gt;&lt;/font&gt;" style="whiteSpace=wrap;html=1;aspect=fixed;fillColor=#994C00;strokeColor=#FFE6CC;" parent="1" vertex="1">
          <mxGeometry x="1060" y="890" width="80" height="80" as="geometry" />
        </mxCell>
        <mxCell id="mJnlvZl1TAp7Em3mBKQQ-176" value="" style="rounded=0;whiteSpace=wrap;html=1;fillColor=#1A3300;strokeColor=#E6FFCC;" parent="1" vertex="1">
          <mxGeometry x="1040" y="980" width="170" height="70" as="geometry" />
        </mxCell>
        <mxCell id="mJnlvZl1TAp7Em3mBKQQ-177" value="Item Repo" style="text;html=1;strokeColor=none;fillColor=none;align=left;verticalAlign=middle;whiteSpace=wrap;rounded=0;fontColor=#FFFFFF;fontStyle=1;spacingLeft=5;fontSize=16;" parent="1" vertex="1">
          <mxGeometry x="1040" y="980" width="110" height="30" as="geometry" />
        </mxCell>
        <mxCell id="mJnlvZl1TAp7Em3mBKQQ-180" value="&lt;font color=&quot;#e6e6e6&quot;&gt;Check if Member(s) Exists,&lt;/font&gt;" style="rounded=0;whiteSpace=wrap;html=1;fillColor=#4D9900;strokeColor=#E6FFCC;" parent="1" vertex="1">
          <mxGeometry x="1050" y="1010" width="150" height="30" as="geometry" />
        </mxCell>
        <mxCell id="mJnlvZl1TAp7Em3mBKQQ-187" style="edgeStyle=orthogonalEdgeStyle;rounded=0;orthogonalLoop=1;jettySize=auto;html=1;exitX=0.5;exitY=1;exitDx=0;exitDy=0;entryX=0;entryY=0.5;entryDx=0;entryDy=0;strokeColor=#FFFFFF;" parent="1" source="mJnlvZl1TAp7Em3mBKQQ-182" target="mJnlvZl1TAp7Em3mBKQQ-186" edge="1">
          <mxGeometry relative="1" as="geometry" />
        </mxCell>
        <mxCell id="mJnlvZl1TAp7Em3mBKQQ-182" value="&lt;font color=&quot;#ffffff&quot;&gt;Member exists?&lt;/font&gt;" style="rhombus;whiteSpace=wrap;html=1;fillColor=#994C00;strokeColor=#FFCCCC;" parent="1" vertex="1">
          <mxGeometry x="880" y="990" width="80" height="80" as="geometry" />
        </mxCell>
        <mxCell id="mJnlvZl1TAp7Em3mBKQQ-186" value="&lt;font color=&quot;#ffffff&quot;&gt;Throw Invalid Arg Exception&lt;/font&gt;" style="whiteSpace=wrap;html=1;aspect=fixed;fillColor=#666600;strokeColor=#FFFFCC;" parent="1" vertex="1">
          <mxGeometry x="970" y="1065" width="80" height="80" as="geometry" />
        </mxCell>
        <mxCell id="mJnlvZl1TAp7Em3mBKQQ-188" value="No" style="text;html=1;strokeColor=none;fillColor=none;align=center;verticalAlign=middle;whiteSpace=wrap;rounded=0;fontColor=#FFFFFF;fontStyle=0;spacingLeft=0;fontSize=12;" parent="1" vertex="1">
          <mxGeometry x="920" y="1070" width="40" height="30" as="geometry" />
        </mxCell>
        <mxCell id="mJnlvZl1TAp7Em3mBKQQ-189" value="" style="rounded=0;whiteSpace=wrap;html=1;fillColor=#1A3300;strokeColor=#E6FFCC;" parent="1" vertex="1">
          <mxGeometry x="730" y="1190" width="95" height="70" as="geometry" />
        </mxCell>
        <mxCell id="mJnlvZl1TAp7Em3mBKQQ-190" value="Item Repo" style="text;html=1;strokeColor=none;fillColor=none;align=left;verticalAlign=middle;whiteSpace=wrap;rounded=0;fontColor=#FFFFFF;fontStyle=1;spacingLeft=5;fontSize=16;" parent="1" vertex="1">
          <mxGeometry x="730" y="1190" width="110" height="30" as="geometry" />
        </mxCell>
        <mxCell id="mJnlvZl1TAp7Em3mBKQQ-191" value="&lt;font color=&quot;#e6e6e6&quot;&gt;Get Items.&lt;/font&gt;" style="rounded=0;whiteSpace=wrap;html=1;fillColor=#4D9900;strokeColor=#E6FFCC;" parent="1" vertex="1">
          <mxGeometry x="740" y="1220" width="75" height="30" as="geometry" />
        </mxCell>
        <mxCell id="mJnlvZl1TAp7Em3mBKQQ-194" style="edgeStyle=orthogonalEdgeStyle;rounded=0;orthogonalLoop=1;jettySize=auto;html=1;exitX=0.5;exitY=1;exitDx=0;exitDy=0;entryX=1;entryY=0.5;entryDx=0;entryDy=0;strokeColor=#FFFFFF;" parent="1" source="mJnlvZl1TAp7Em3mBKQQ-192" target="mJnlvZl1TAp7Em3mBKQQ-189" edge="1">
          <mxGeometry relative="1" as="geometry">
            <Array as="points">
              <mxPoint x="920" y="1260" />
              <mxPoint x="860" y="1260" />
              <mxPoint x="860" y="1225" />
            </Array>
          </mxGeometry>
        </mxCell>
        <mxCell id="mJnlvZl1TAp7Em3mBKQQ-192" value="&lt;font color=&quot;#ffffff&quot;&gt;Return List of Items.&lt;br&gt;&lt;/font&gt;" style="whiteSpace=wrap;html=1;aspect=fixed;fillColor=#994C00;strokeColor=#FFE6CC;" parent="1" vertex="1">
          <mxGeometry x="880" y="1160" width="80" height="80" as="geometry" />
        </mxCell>
        <mxCell id="mJnlvZl1TAp7Em3mBKQQ-195" value="&lt;font color=&quot;#ffffff&quot;&gt;Get list of Items.&lt;/font&gt;" style="whiteSpace=wrap;html=1;aspect=fixed;fillColor=#4D9900;strokeColor=#E6FFCC;" parent="1" vertex="1">
          <mxGeometry x="680" y="40" width="80" height="80" as="geometry" />
        </mxCell>
        <mxCell id="mJnlvZl1TAp7Em3mBKQQ-197" value="Help Service" style="text;html=1;strokeColor=none;fillColor=none;align=left;verticalAlign=middle;whiteSpace=wrap;rounded=0;fontColor=#FFFFFF;fontStyle=1;spacingLeft=5;fontSize=16;" parent="1" vertex="1">
          <mxGeometry x="310" width="120" height="30" as="geometry" />
        </mxCell>
        <mxCell id="mJnlvZl1TAp7Em3mBKQQ-198" value="&lt;font color=&quot;#ffffff&quot;&gt;Get list of commands.&lt;/font&gt;" style="whiteSpace=wrap;html=1;aspect=fixed;fillColor=#009999;strokeColor=#E6FFCC;" parent="1" vertex="1">
          <mxGeometry x="330" y="30" width="80" height="80" as="geometry" />
        </mxCell>
        <mxCell id="mJnlvZl1TAp7Em3mBKQQ-199" style="edgeStyle=orthogonalEdgeStyle;rounded=0;orthogonalLoop=1;jettySize=auto;html=1;exitX=1;exitY=0.5;exitDx=0;exitDy=0;entryX=0.5;entryY=1;entryDx=0;entryDy=0;strokeColor=#FFFFFF;" parent="1" source="mJnlvZl1TAp7Em3mBKQQ-4" target="mJnlvZl1TAp7Em3mBKQQ-198" edge="1">
          <mxGeometry relative="1" as="geometry">
            <Array as="points">
              <mxPoint x="370" y="230" />
            </Array>
          </mxGeometry>
        </mxCell>
        <mxCell id="mJnlvZl1TAp7Em3mBKQQ-201" value="" style="rounded=0;whiteSpace=wrap;html=1;fillColor=#000000;strokeColor=#FFFFFF;" parent="1" vertex="1">
          <mxGeometry x="-140" y="160" width="270" height="70" as="geometry" />
        </mxCell>
        <mxCell id="mJnlvZl1TAp7Em3mBKQQ-202" value="Item" style="text;html=1;strokeColor=none;fillColor=#190033;align=left;verticalAlign=middle;whiteSpace=wrap;rounded=0;fontColor=#FFFFFF;fontStyle=1;spacingLeft=5;fontSize=16;strokeWidth=3;" parent="1" vertex="1">
          <mxGeometry x="-140" y="160" width="270" height="30" as="geometry" />
        </mxCell>
        <mxCell id="mJnlvZl1TAp7Em3mBKQQ-203" value="- Key (String)&lt;br&gt;- Members (List&amp;lt;String&amp;gt;)" style="text;html=1;strokeColor=none;fillColor=none;align=left;verticalAlign=top;whiteSpace=wrap;rounded=0;fontColor=#FFFFFF;spacingLeft=5;" parent="1" vertex="1">
          <mxGeometry x="-140" y="190" width="270" height="40" as="geometry" />
        </mxCell>
        <mxCell id="mJnlvZl1TAp7Em3mBKQQ-204" value="" style="rounded=0;whiteSpace=wrap;html=1;fillColor=#000000;strokeColor=#FFFFFF;" parent="1" vertex="1">
          <mxGeometry x="-140" y="240" width="270" height="70" as="geometry" />
        </mxCell>
        <mxCell id="mJnlvZl1TAp7Em3mBKQQ-205" value="Invalid Arg Exception" style="text;html=1;strokeColor=none;fillColor=#FF546B;align=left;verticalAlign=middle;whiteSpace=wrap;rounded=0;fontColor=#FFFFFF;fontStyle=1;spacingLeft=5;fontSize=16;strokeWidth=3;" parent="1" vertex="1">
          <mxGeometry x="-140" y="240" width="270" height="30" as="geometry" />
        </mxCell>
        <mxCell id="mJnlvZl1TAp7Em3mBKQQ-206" value="- Field (String)&lt;br&gt;- Issue (String)" style="text;html=1;strokeColor=none;fillColor=none;align=left;verticalAlign=top;whiteSpace=wrap;rounded=0;fontColor=#FFFFFF;spacingLeft=5;" parent="1" vertex="1">
          <mxGeometry x="-140" y="270" width="270" height="40" as="geometry" />
        </mxCell>
        <mxCell id="mJnlvZl1TAp7Em3mBKQQ-207" value="" style="rounded=0;whiteSpace=wrap;html=1;fillColor=#000000;strokeColor=#FFFFFF;" parent="1" vertex="1">
          <mxGeometry x="-140" y="320" width="270" height="60" as="geometry" />
        </mxCell>
        <mxCell id="mJnlvZl1TAp7Em3mBKQQ-208" value="Invalid Command Exception" style="text;html=1;strokeColor=none;fillColor=#FF546B;align=left;verticalAlign=middle;whiteSpace=wrap;rounded=0;fontColor=#FFFFFF;fontStyle=1;spacingLeft=5;fontSize=16;strokeWidth=3;" parent="1" vertex="1">
          <mxGeometry x="-140" y="320" width="270" height="30" as="geometry" />
        </mxCell>
        <mxCell id="mJnlvZl1TAp7Em3mBKQQ-209" value="- Command (String)" style="text;html=1;strokeColor=none;fillColor=none;align=left;verticalAlign=top;whiteSpace=wrap;rounded=0;fontColor=#FFFFFF;spacingLeft=5;" parent="1" vertex="1">
          <mxGeometry x="-140" y="350" width="270" height="30" as="geometry" />
        </mxCell>
        <mxCell id="QLSgSdQPPWV6pEswoW_q-1" value="&lt;font color=&quot;#ffffff&quot;&gt;Remove member from Key.&lt;/font&gt;" style="whiteSpace=wrap;html=1;aspect=fixed;fillColor=#4D9900;strokeColor=#E6FFCC;" vertex="1" parent="1">
          <mxGeometry x="680" y="-50" width="80" height="80" as="geometry" />
        </mxCell>
        <mxCell id="QLSgSdQPPWV6pEswoW_q-2" value="" style="rounded=0;whiteSpace=wrap;html=1;fillColor=#1A3300;strokeColor=#E6FFCC;" vertex="1" parent="1">
          <mxGeometry x="1160" y="295" width="120" height="70" as="geometry" />
        </mxCell>
        <mxCell id="QLSgSdQPPWV6pEswoW_q-3" value="Item Repo" style="text;html=1;strokeColor=none;fillColor=none;align=left;verticalAlign=middle;whiteSpace=wrap;rounded=0;fontColor=#FFFFFF;fontStyle=1;spacingLeft=5;fontSize=16;" vertex="1" parent="1">
          <mxGeometry x="1160" y="295" width="110" height="30" as="geometry" />
        </mxCell>
        <mxCell id="QLSgSdQPPWV6pEswoW_q-4" value="&lt;font color=&quot;#e6e6e6&quot;&gt;Remove Member&lt;/font&gt;" style="rounded=0;whiteSpace=wrap;html=1;fillColor=#4D9900;strokeColor=#E6FFCC;" vertex="1" parent="1">
          <mxGeometry x="1170" y="325" width="100" height="30" as="geometry" />
        </mxCell>
      </root>
    </mxGraphModel>
  </diagram>
</mxfile>
